<?xml version="1.0" encoding="utf-8"?>
<!-- Generator: Adobe Illustrator 27.5.0, SVG Export Plug-In . SVG Version: 6.00 Build 0)  -->
<svg version="1.1" xmlns="http://www.w3.org/2000/svg" xmlns:xlink="http://www.w3.org/1999/xlink" x="0px" y="0px"
	 viewBox="0 0 500 500" style="enable-background:new 0 0 500 500;" xml:space="preserve">
<g id="Floor">
	<ellipse id="Floor_1_" style="fill:#FAFAFA;" cx="250" cy="352.219" rx="239.652" ry="138.363"/>
</g>
<g id="Shadows">
	<path id="Shadow_39_" style="fill:#E6E6E6;" d="M430.552,378.795l49.351-28.442c1.148-0.663,1.149-1.739,0.002-2.404
		l-121.968-70.672c-1.146-0.665-3.006-0.667-4.154-0.004l-49.351,28.442c-1.148,0.663-1.149,1.739-0.002,2.404l121.968,70.672
		C427.545,379.457,429.405,379.458,430.552,378.795z"/>
	<ellipse id="Shadow_16_" style="fill:#E6E6E6;" cx="359.221" cy="414.626" rx="66.902" ry="38.626"/>
	<path id="Shadow_10_" style="fill:#E6E6E6;" d="M62.988,428.116l18.797,10.853c2.396,1.383,6.28,1.383,8.676,0l158.168-91.318
		c2.396-1.383,2.396-3.626,0-5.009l-18.797-10.853c-2.396-1.383-6.28-1.383-8.676,0L62.988,423.107
		C60.592,424.49,60.592,426.733,62.988,428.116z"/>
	<path id="Shadow_7_" style="fill:#E6E6E6;" d="M116.476,437.293l7.602,4.389c2.396,1.383,6.28,1.383,8.676,0l132.301-76.384
		c2.396-1.383,2.396-3.626,0-5.009l-7.602-4.389c-2.396-1.383-6.28-1.383-8.676,0l-132.301,76.384
		C114.08,433.667,114.08,435.91,116.476,437.293z"/>
	<path id="Shadow_40_" style="fill:#E6E6E6;" d="M268.715,274.904c-11.113,6.488-11.113,17.008,0,23.496
		c11.113,6.489,29.131,6.489,40.244,0c11.113-6.488,11.113-17.007,0-23.496C297.846,268.416,279.828,268.416,268.715,274.904z"/>
</g>
<g id="Drawer">
	<g id="Drawer_3_">
		<g>
			<g>
				<g>
					<polygon style="fill:#E0E0E0;" points="420.112,351.286 424.35,372.312 428.471,374.691 432.554,372.333 436.829,351.286 
						428.47,346.46 					"/>
					<polygon style="opacity:0.05;" points="420.112,351.286 424.35,372.312 428.471,374.691 432.554,372.333 436.829,351.286 
						428.47,346.46 					"/>
					<polygon style="fill:#EBEBEB;" points="428.471,374.691 428.47,356.112 420.112,351.286 424.35,372.312 					"/>
				</g>
				<polygon style="opacity:0.05;" points="420.112,351.286 422.849,364.864 428.471,368.11 434.068,364.878 436.828,351.286 
					428.47,346.46 				"/>
			</g>
			<g>
				<g>
					<polygon style="fill:#E0E0E0;" points="456.865,330.067 461.104,351.092 465.224,353.471 469.307,351.114 473.582,330.067 
						465.223,325.241 					"/>
					<polygon style="opacity:0.05;" points="456.865,330.067 461.104,351.092 465.224,353.471 469.307,351.114 473.582,330.067 
						465.223,325.241 					"/>
					<polygon style="fill:#EBEBEB;" points="465.224,353.471 465.223,334.892 456.865,330.067 461.104,351.092 					"/>
				</g>
				<polygon style="opacity:0.05;" points="456.865,330.067 459.603,343.645 465.224,346.89 470.822,343.659 473.582,330.067 
					465.223,325.241 				"/>
			</g>
			<g>
				<g>
					<polygon style="opacity:0.05;" points="311.393,288.515 315.632,309.541 319.752,311.92 323.835,309.562 328.11,288.516 
						319.751,283.689 					"/>
					<polygon style="fill:#EBEBEB;" points="319.752,311.92 319.751,293.341 311.393,288.515 315.632,309.541 					"/>
				</g>
				<polygon style="opacity:0.05;" points="311.393,288.515 314.131,302.093 319.752,305.339 325.349,302.108 328.11,288.516 
					319.751,283.689 				"/>
			</g>
			<g id="Cabinet_1_">
				<g id="Cabinet_3_">
					<g id="XMLID_1206_">
						<polygon id="XMLID_1229_" style="fill:#E0E0E0;" points="428.471,364.717 474.019,338.42 474.019,239.839 428.471,266.136 
													"/>
						<polygon id="XMLID_1208_" style="fill:#EBEBEB;" points="428.471,266.136 309.025,197.173 309.024,295.754 428.471,364.717 
													"/>
						<polygon id="XMLID_1207_" style="fill:#F5F5F5;" points="309.025,197.173 428.471,266.136 474.019,239.839 354.573,170.876 
													"/>
					</g>
					<g id="XMLID_1147_">
						<g id="XMLID_1197_">
							<polygon id="XMLID_1203_" style="fill:#E0E0E0;" points="421.964,314.971 315.531,253.521 315.533,289.7 314.336,290.392 
								420.769,351.841 421.966,351.149 							"/>
						</g>
						<g id="XMLID_1170_">
							<polygon id="XMLID_1172_" style="fill:#F5F5F5;" points="420.768,315.663 314.334,254.213 314.336,290.392 420.769,351.841 
															"/>
						</g>
						<g id="XMLID_1148_">
							<path id="XMLID_1161_" style="fill:#E0E0E0;" d="M369.599,292.957l-8.852-5.111c-1.149-0.664-2.081-0.361-2.081,0.677
								c0,1.038,0.932,2.417,2.081,3.08l8.853,5.111c1.149,0.663,2.081,0.361,2.08-0.677
								C371.68,294.999,370.748,293.621,369.599,292.957z"/>
						</g>
					</g>
					<g id="XMLID_1102_">
						<g id="XMLID_1125_">
							<polygon id="XMLID_1126_" style="fill:#E0E0E0;" points="421.966,271.287 315.533,209.836 315.535,246.015 314.338,246.707 
								420.771,308.156 421.968,307.465 							"/>
						</g>
						<g id="XMLID_1109_">
							<polygon id="XMLID_1112_" style="fill:#F5F5F5;" points="420.769,271.979 314.336,210.529 314.338,246.707 420.771,308.156 
															"/>
						</g>
						<g id="XMLID_1105_">
							<path id="XMLID_1108_" style="fill:#E0E0E0;" d="M369.601,249.273l-8.852-5.111c-1.149-0.664-2.081-0.361-2.081,0.677
								c0,1.038,0.932,2.417,2.081,3.08l8.853,5.111c1.149,0.663,2.081,0.36,2.08-0.677
								C371.682,251.315,370.75,249.936,369.601,249.273z"/>
						</g>
					</g>
				</g>
			</g>
		</g>
		<g id="Pot_2_">
			<g id="XMLID_1095_">
				<path id="XMLID_1101_" style="fill:#E0E0E0;" d="M357.988,200.131c-5.521,3.188-5.521,8.356,0,11.544
					c5.521,3.188,14.473,3.188,19.994,0c5.521-3.188,5.521-8.356,0-11.544C372.461,196.943,363.51,196.943,357.988,200.131z"/>
			</g>
			<g id="XMLID_1040_">
				<path id="XMLID_1071_" style="fill:#EBEBEB;" d="M376.779,206.615c4.809-4.907,7.633-17.158,2.943-21.049h-23.864
					c-4.689,3.89-1.867,16.135,2.939,21.045c0.041,0.046,0.088,0.09,0.132,0.135c0.055,0.054,0.11,0.109,0.165,0.162
					c0.136,0.131,0.28,0.26,0.435,0.386c0.038,0.032,0.077,0.06,0.115,0.09c0.118,0.092,0.234,0.185,0.363,0.274
					c0.205,0.145,0.412,0.281,0.621,0.397c3.955,2.284,10.368,2.284,14.323,0h0h0.001c0.211-0.117,0.419-0.254,0.626-0.4
					c0.12-0.083,0.228-0.17,0.338-0.256c0.047-0.037,0.095-0.072,0.142-0.111c0.149-0.122,0.288-0.246,0.419-0.373
					c0.064-0.06,0.128-0.124,0.191-0.187C376.704,206.691,376.745,206.654,376.779,206.615z"/>
				<path id="XMLID_1070_" style="fill:#FAFAFA;" d="M357.931,183.998c-5.445,3.144-5.445,8.24,0,11.384
					c5.445,3.143,14.273,3.144,19.718,0c5.445-3.143,5.445-8.24,0-11.384C372.204,180.855,363.376,180.855,357.931,183.998z"/>
				<path id="XMLID_1058_" style="fill:#F5F5F5;" d="M361.792,186.227c-3.313,1.912-3.313,5.013,0,6.926
					c3.313,1.912,8.684,1.912,11.996,0c3.313-1.913,3.313-5.013,0-6.926C370.475,184.315,365.104,184.315,361.792,186.227z"/>
				<path id="XMLID_1041_" style="fill:#EBEBEB;" d="M373.788,189.514c-3.313-1.912-8.683-1.912-11.996,0
					c-0.921,0.532-1.575,1.156-1.984,1.82c0.409,0.664,1.064,1.288,1.984,1.82c3.313,1.912,8.683,1.912,11.996,0
					c0.92-0.531,1.575-1.156,1.984-1.82C375.363,190.67,374.708,190.046,373.788,189.514z"/>
			</g>
			<g id="XMLID_974_">
				<path id="XMLID_975_" style="fill:#E0E0E0;" d="M362.523,191.334c0,0-2.336-2.225-4.339-5.768
					c-2.004-3.543-2.374-8.29-1.338-8.876c1.036-0.586,5.252,4.149,5.252,4.149s-0.621-2.892-0.444-6.048
					c0.177-3.156,0.946-6.023,1.85-6.602c0.904-0.579,2.926,3.403,3.793,6.288c0.867,2.885,1.385,5.256,1.385,5.256
					s0.592-3.9,1.555-6.639c1.052-2.995,2.006-3.672,2.746-3.376c0.74,0.296,1.228,1.693,1.444,5.683
					c0.152,2.793-0.178,5.709-0.178,5.709s1.486-1.635,3.137-3.221c1.812-1.741,2.588-1.981,3.106-1.649
					c0.518,0.332,0.661,3.041-2.146,8.118c-2.477,4.48-5.299,6.975-5.299,6.975S369.161,193.839,362.523,191.334z"/>
			</g>
		</g>
		<g id="Picture_3_">
			<g id="Frame_3_">
				<polygon id="XMLID_915_" style="fill:#FAFAFA;" points="431.712,246.214 429.938,247.069 397.088,228.103 398.861,227.248 				
					"/>
				<g id="XMLID_896_">
					<g id="XMLID_898_">
						<g id="XMLID_908_">
							<polygon id="XMLID_914_" style="fill:#FFFFFF;" points="398.861,227.248 430.111,245.286 434.656,198.544 403.406,180.517 
															"/>
						</g>
					</g>
				</g>
				<path id="XMLID_864_" style="fill:#F0F0F0;" d="M393.745,229.661l38.892,22.454l5.362-55.129l-38.892-22.454L393.745,229.661z
					 M401.807,179.579l32.849,18.965l-4.719,48.525l-32.849-18.966L401.807,179.579z"/>
				<polygon id="XMLID_863_" style="fill:#E0E0E0;" points="397.088,228.103 398.861,227.248 403.406,180.517 401.807,179.579 				
					"/>
				<polygon id="XMLID_856_" style="fill:#FAFAFA;" points="399.107,174.532 400.905,173.701 439.796,196.155 437.999,196.986 				
					"/>
				<polygon id="XMLID_855_" style="fill:#E0E0E0;" points="439.796,196.155 437.999,196.986 432.637,252.115 434.435,251.284 				
					"/>
			</g>
			<g id="Land_9_">
				<polygon style="fill:#F0F0F0;" points="400.236,226.359 429.045,242.992 429.811,235.118 424.453,211.986 419.345,219.879 
					420.403,226.529 411.885,201.987 401.002,218.486 				"/>
				<path style="fill:#F0F0F0;" d="M424.895,202.247c1.177,0.679,2.03,2.273,1.904,3.56c-0.125,1.286-1.181,1.779-2.358,1.099
					c-1.177-0.679-2.029-2.273-1.904-3.56C422.663,202.059,423.719,201.567,424.895,202.247z"/>
			</g>
		</g>
	</g>
</g>
<g id="Picture">
	<g id="Picture_2_">
		<g id="Frame_2_">
			<polygon id="XMLID_853_" style="fill:#FAFAFA;" points="36.135,193.783 38.666,195.291 90.6,165.307 88.07,163.797 			"/>
			<g id="XMLID_848_">
				<g id="XMLID_849_">
					<g id="XMLID_850_">
						<polygon id="XMLID_851_" style="fill:#FFFFFF;" points="88.07,163.797 38.666,192.314 38.667,71.02 88.071,42.521 						"/>
					</g>
				</g>
			</g>
			<path id="XMLID_838_" style="fill:#F0F0F0;" d="M95.378,32.764L33.89,68.263l0,135.299l61.487-35.5L95.378,32.764z M90.6,165.307
				l-51.934,29.985L38.667,71.02l51.934-29.984L90.6,165.307z"/>
			<polygon id="XMLID_837_" style="fill:#E0E0E0;" points="90.6,165.307 88.07,163.797 88.071,42.521 90.601,41.035 			"/>
			<polygon id="XMLID_835_" style="fill:#FAFAFA;" points="95.378,32.764 92.808,31.292 31.321,66.792 33.89,68.263 			"/>
			<polygon id="XMLID_832_" style="fill:#E0E0E0;" points="31.321,66.792 33.89,68.263 33.89,203.562 31.321,202.091 			"/>
		</g>
		<g id="Land_4_">
			<polygon style="fill:#F0F0F0;" points="84.365,160.84 42.373,185.085 42.373,75.486 84.365,51.242 			"/>
		</g>
		<g id="Land_3_">
			<polygon style="fill:#F0F0F0;" points="84.365,160.84 42.373,185.085 42.373,75.486 84.365,51.242 			"/>
		</g>
		<path style="fill:#FAFAFA;" d="M42.373,144.36c1.99,0.158,4.009,0.099,6.002-0.05c6.98-0.523,13.886-2.025,20.452-4.448
			c5.082-1.876,10.161-4.308,15.539-4.459v25.437l-5.687,3.283c-2.263-2.005-4.876-3.561-7.795-4.329
			c-8.093-2.13-16.39,1.942-24.704,2.893c-1.264,0.145-2.535,0.189-3.807,0.188V144.36z"/>
		<path style="fill:#FAFAFA;" d="M42.373,126.476c9.396-2.778,19.035-5.092,25.739-11.984c5.404-5.556,7.95-13.255,9.729-20.799
			c1.779-7.544,2.999-15.332,6.415-22.289c0.034-0.069,0.076-0.134,0.11-0.203v43.637c-0.527,0.785-1.051,1.57-1.614,2.333
			c-6.169,8.359-15.259,15.341-25.634,15.88c-4.876,0.253-9.916-0.888-14.744-0.872V126.476z"/>
		<path style="fill:#FAFAFA;" d="M42.373,98.535c7.205-6.354,11.061-16.551,9.304-26.051c-0.13-0.704-0.295-1.401-0.474-2.096
			l16.154-9.327c-0.064,1.063-0.115,2.126-0.144,3.184c-0.17,6.17,0.044,12.415-1.324,18.433
			c-2.294,10.091-9.213,19.033-18.405,23.787c-1.643,0.85-3.355,1.557-5.11,2.132V98.535z"/>
	</g>
</g>
<g id="Window_1_">
	<g id="Window_9_">
		<g>
			<polygon id="XMLID_728_" style="fill:#FFFFFF;" points="351.841,126.918 466.987,193.393 466.987,95.495 351.841,29.037 			"/>
		</g>
		<g>
			<polygon id="XMLID_727_" style="fill:#FAFAFA;" points="469.246,194.702 466.988,196.048 349.585,128.265 351.841,126.918 			"/>
			<path id="XMLID_721_" style="fill:#F0F0F0;" d="M345.324,130.723l125.924,72.702l0-110.389L345.323,20.334L345.324,130.723z
				 M349.584,27.713l117.402,67.783l0.001,100.553l-117.403-67.783L349.584,27.713z"/>
			<polygon id="XMLID_714_" style="fill:#E0E0E0;" points="349.585,128.265 351.841,126.918 351.841,29.037 349.584,27.713 			"/>
			<polygon id="XMLID_654_" style="fill:#FAFAFA;" points="345.323,20.334 347.616,19.022 473.54,91.724 471.248,93.036 			"/>
			<polygon id="XMLID_544_" style="fill:#E0E0E0;" points="473.54,91.724 471.248,93.036 471.247,203.426 473.54,202.114 			"/>
		</g>
		<g>
			<polygon id="XMLID_502_" style="fill:#FAFAFA;" points="465.111,120.211 465.111,122.861 349.584,56.075 351.841,54.728 			"/>
			<polygon id="XMLID_279_" style="fill:#E0E0E0;" points="411.917,63.713 409.625,62.39 409.625,162.95 411.917,161.637 			"/>
			<polygon style="fill:#F0F0F0;" points="405.364,59.941 409.625,62.39 409.625,162.95 405.365,160.482 			"/>
			<g>
				<polygon style="fill:#F0F0F0;" points="349.584,56.075 349.584,60.988 467.031,129.049 467.031,124.136 				"/>
			</g>
			<polygon style="fill:#FAFAFA;" points="409.625,90.868 411.917,89.46 466.988,121.292 466.988,124.136 			"/>
		</g>
	</g>
</g>
<g id="Plants">
	<g id="Plant_1_">
		<g id="Pot_6_">
			<g id="Pot_7_">
				<g id="XMLID_1231_">
					<g id="XMLID_1238_">
						<g id="XMLID_1239_">
							<g id="XMLID_1234_">
								<path id="XMLID_1235_" style="fill:#F0F0F0;" d="M272.241,289.95c-8.75-9.029-13.89-45.776-5.355-52.937h43.427
									c8.533,7.16,3.398,43.893-5.347,52.928c-0.075,0.084-0.161,0.165-0.24,0.248c-0.1,0.1-0.2,0.201-0.301,0.298
									c-0.247,0.242-0.509,0.479-0.791,0.711c-0.069,0.058-0.14,0.11-0.209,0.166c-0.215,0.17-0.426,0.341-0.66,0.504
									c-0.373,0.268-0.749,0.517-1.131,0.731c-7.198,4.202-18.868,4.202-26.066,0l-0.001,0l-0.001,0
									c-0.384-0.216-0.763-0.467-1.139-0.737c-0.218-0.153-0.414-0.312-0.615-0.47c-0.086-0.069-0.173-0.133-0.258-0.205
									c-0.272-0.225-0.524-0.453-0.763-0.686c-0.117-0.111-0.233-0.228-0.348-0.344
									C272.377,290.09,272.304,290.022,272.241,289.95z"/>
							</g>
							<g id="XMLID_1249_">
								<path id="XMLID_1233_" style="fill:#F5F5F5;" d="M306.542,234.129c9.908,5.785,9.908,15.165,0,20.95
									c-9.909,5.786-25.974,5.786-35.882,0c-9.908-5.785-9.908-15.164,0-20.949C280.568,228.344,296.633,228.344,306.542,234.129z
									"/>
							</g>
							<g id="XMLID_1243_">
								<path id="XMLID_1232_" style="fill:#E0E0E0;" d="M301.776,236.911c7.277,4.249,7.277,11.136,0,15.385
									c-7.277,4.249-19.074,4.249-26.351,0c-7.276-4.249-7.276-11.137,0-15.385C282.702,232.663,294.499,232.663,301.776,236.911z
									"/>
							</g>
							<g id="XMLID_1241_">
								<path id="XMLID_1242_" style="fill:#FAFAFA;" d="M275.425,244.213c7.277-4.249,19.074-4.249,26.351,0
									c2.021,1.18,3.46,2.567,4.359,4.041c-0.899,1.474-2.337,2.861-4.359,4.042c-7.277,4.249-19.074,4.249-26.351,0
									c-2.021-1.18-3.46-2.568-4.359-4.042C271.965,246.78,273.404,245.393,275.425,244.213z"/>
							</g>
						</g>
					</g>
				</g>
			</g>
			<g id="Plants_8_">
				<g id="XMLID_1230_">
					<path style="fill:#F0F0F0;" d="M308.079,169.236l-16.485,13.072l15.944-7.36c0,0,0.114,8.01-2.77,15.103
						c0,0-7.851,4.682-12.413,8.8l12.222-4.829c0,0,0.837,8.055-2.514,20.344c-0.878,3.218-4.493,9.363-6.778,13.955
						c-1.031,2.083-2.204,4.138-3.55,6.13c-0.075,0.127-0.161,0.245-0.245,0.373c-2.796-1.598-5.701-3.15-8.714-4.649
						c-1.965-4.134-4.526-14.339-5.452-22.697C273.809,175.485,298,157.149,317.451,151C317.451,151,310.769,159.38,308.079,169.236
						z"/>
					<path style="fill:#FFFFFF;" d="M294.296,170.574c-3.366,3.383-5.336,7.839-6.846,12.29c-1.495,4.487-2.441,9.147-2.926,13.843
						c-0.982,9.389,0.097,19.017,3.49,27.782l0.004,0.01c0.092,0.239-0.026,0.507-0.265,0.6c-0.239,0.092-0.507-0.026-0.599-0.265
						c-0.001-0.002-0.002-0.005-0.003-0.007c-3.312-8.989-4.229-18.735-3.088-28.169c0.566-4.72,1.593-9.387,3.168-13.868
						C288.818,178.345,290.873,173.902,294.296,170.574z"/>
				</g>
				<g>
					<path style="fill:#F5F5F5;" d="M236.715,186.012c0,0,0.008,0.011,0.025,0.023c0.413,0.491,7.182,8.542,17.229,24.209
						l16.729,2.692l-12.338,2.156l6.624,10.493l16.464,3.405l-12.856,2.092c0,0,3.57,12.546,12.772,17.776
						c5.08,2.887,7.564,3.327,9.088,1.878c1.065-1.013,1.315-7.031,2.204-12.401c0.889-5.37,0.961-14.105-4.108-24.642
						c-1.347-2.803-3.144-5.384-5.269-7.745C271.101,192.384,248.093,185.847,236.715,186.012z"/>
					<path style="fill:#FFFFFF;" d="M254.217,191.486c8.65,3.795,16.837,9.002,23.27,16.071c3.234,3.499,5.963,7.49,7.967,11.83
						c1.95,4.36,3.212,9.02,3.64,13.747c0.002,0.025-0.016,0.048-0.042,0.05c-0.024,0.002-0.045-0.015-0.05-0.038
						c-0.952-4.638-2.324-9.154-4.387-13.365c-1.991-4.236-4.608-8.176-7.681-11.729c-6.219-7.08-14.226-12.449-22.755-16.481
						c-0.023-0.011-0.034-0.038-0.023-0.062C254.167,191.486,254.194,191.476,254.217,191.486z"/>
				</g>
				<path style="fill:#F0F0F0;" d="M336.384,192.919L336.384,192.919c-1.255-0.027-2.671,0.037-4.209,0.194
					c-4.615,0.47-10.33,1.768-16.102,3.918c-1.924,0.717-3.854,1.528-5.751,2.435c-0.949,0.453-1.889,0.931-2.817,1.432
					c-4.638,2.506-8.952,5.611-12.336,9.327c-1.673,1.831-3.101,3.827-4.247,5.968c-0.149,0.279-0.311,0.551-0.451,0.835
					c-0.001,0.002-0.001,0.004-0.002,0.006c-0.36,0.736-0.682,1.457-0.986,2.172c-3.557,8.041-3.857,13.623-3.633,19.812
					c0.174,4.801,1.806,10.289,2.741,11.19c0.128,0.123,0.269,0.223,0.418,0.31c1.368,0.872,3.545,0.364,7.614-1.912
					c8.153-4.559,11.354-16.11,11.354-16.11l-11.333-1.925l14.55-2.904l5.91-9.219l-10.875-1.978l14.78-2.273
					c8.962-13.764,14.986-20.827,15.353-21.258C336.378,192.928,336.385,192.919,336.384,192.919L336.384,192.919z"/>
				<path style="fill:#E6E6E6;" d="M332.175,193.113c-4.615,0.47-10.33,1.768-16.102,3.918c-1.924,0.717-3.854,1.528-5.751,2.435
					c-0.949,0.453-1.889,0.931-2.817,1.432c-4.638,2.506-8.952,5.611-12.336,9.327c-1.673,1.831-3.101,3.827-4.247,5.968
					c-0.149,0.279-0.311,0.551-0.451,0.835c-0.001,0.002-0.001,0.004-0.002,0.006c-0.36,0.736-0.682,1.457-0.986,2.172
					c-3.557,8.041-3.857,13.623-3.633,19.812c0.174,4.801,1.806,10.289,2.741,11.19c0.128,0.123,0.269,0.223,0.418,0.31
					c0.263,0.168,0.567,0.267,0.898,0.33c-1.005-7.444,2.656-26.317,8.199-34.08c5.767-8.076,19.449-19.788,38.257-23.829
					l-0.015-0.019C335.101,192.894,333.699,192.958,332.175,193.113z"/>
				<path style="fill:#FFFFFF;" d="M289.86,250.85c-0.401-5.497,0.045-11.04,1.068-16.461c1.09-5.403,2.733-10.752,5.461-15.611
					c2.786-4.858,6.792-8.828,11.053-12.343c4.345-3.434,9.102-6.352,14.182-8.499c0.023-0.01,0.051,0.001,0.061,0.025
					c0.01,0.022,0,0.047-0.021,0.059c-4.838,2.619-9.451,5.614-13.636,9.134c-2.114,1.729-4.138,3.573-5.991,5.575
					c-1.874,1.979-3.629,4.085-5.007,6.424c-2.749,4.706-4.477,9.985-5.647,15.33c-1.137,5.361-1.707,10.868-1.43,16.363
					c0.002,0.025-0.018,0.047-0.043,0.049C289.884,250.895,289.862,250.876,289.86,250.85z"/>
			</g>
		</g>
	</g>
	<g id="Plants_4_">
		<g id="XMLID_783_">
			<g id="XMLID_794_">
				<path id="XMLID_824_" style="fill:#BA68C8;" d="M79.467,413.592c1.44-17.148,5.324-34.194-1.665-59.214
					c-5.865-20.997-18.152-38.708-34.636-42.466c-6.831-1.557-12.071-0.712-15.727,3.758c-6.424,7.856-0.243,18.275,7.068,24.868
					c3.215,2.899,30.307,22.626,33.213,57.621l0.59,19.576c0.213,1.023,1.365,1.537,2.269,1.013L79.467,413.592z"/>
				<path id="XMLID_823_" style="opacity:0.25;fill:#FFFFFF;" d="M79.467,413.592c1.44-17.148,5.324-34.194-1.665-59.214
					c-5.865-20.997-18.152-38.708-34.636-42.466c-6.831-1.557-12.071-0.712-15.727,3.758c-6.424,7.856-0.243,18.275,7.068,24.868
					c3.215,2.899,30.307,22.626,33.213,57.621l0.59,19.576c0.213,1.023,1.365,1.537,2.269,1.013L79.467,413.592z"/>
			</g>
			<g id="XMLID_786_">
				<path id="XMLID_793_" style="fill:#FFFFFF;" d="M74.995,406.975c-0.318-0.098-0.545-0.398-0.536-0.745
					c1.016-41.885-10.812-68.842-37.776-82.861c-0.372-0.193-0.454-0.699-0.226-1.051c0.226-0.351,0.665-0.419,1.051-0.226
					c27.307,13.575,39.501,41.742,38.471,84.175c-0.01,0.419-0.358,0.751-0.777,0.741C75.129,407.007,75.06,406.995,74.995,406.975z
					"/>
			</g>
		</g>
		<g id="XMLID_734_">
			<g id="XMLID_737_">
				<path id="XMLID_763_" style="fill:#BA68C8;" d="M62.822,423.207c-0.299-6.076-2.981-16.199-12.941-31.17
					c-8.602-12.931-23.765-21.73-25.837-29.263c-2.49-9.049,5.499-15.78,18.211-12.109c15.278,4.412,32.131,29.221,32.458,65.688
					L62.822,423.207z"/>
				<path id="XMLID_762_" style="opacity:0.65;fill:#FFFFFF;" d="M62.822,423.207c-0.299-6.076-2.981-16.199-12.941-31.17
					c-8.602-12.931-23.765-21.73-25.837-29.263c-2.49-9.049,5.499-15.78,18.211-12.109c15.278,4.412,32.131,29.221,32.458,65.688
					L62.822,423.207z"/>
			</g>
			<g id="XMLID_735_">
				<path id="XMLID_736_" style="fill:#FFFFFF;" d="M68.78,415.777c-0.276-0.088-0.488-0.331-0.524-0.638
					c-3.696-32.109-22.89-52.049-33.045-55.852c-0.393-0.147-0.592-0.585-0.446-0.979c0.147-0.394,0.569-0.597,0.979-0.445
					c11.23,4.204,30.25,24.328,34.024,57.102c0.048,0.416-0.252,0.794-0.669,0.842C68.987,415.821,68.88,415.809,68.78,415.777z"/>
			</g>
		</g>
	</g>
</g>
<g id="Device_1_">
	<g id="Mobile_5_">
		<path style="fill:#BA68C8;" d="M211.663,24.745L80.339,100.579c-4.263,2.461-6.819,6.784-7.074,11.739l0.008,305.065
			c0,4.81,2.97,10.424,6.633,12.541c3.663,2.116,10.01,1.881,14.175-0.524l130.85-75.546c4.148-2.395,7.542-8.274,7.542-13.064
			l-0.002-304.03c0-4.81-2.97-10.424-6.633-12.539C222.175,22.105,215.829,22.34,211.663,24.745z"/>
		<path style="opacity:0.3;fill:#FFFFFF;" d="M211.663,24.745L80.339,100.579c-4.263,2.461-6.819,6.784-7.074,11.739l0.008,305.065
			c0,4.81,2.97,10.424,6.633,12.541c3.663,2.116,10.01,1.881,14.175-0.524l130.85-75.546c4.148-2.395,7.542-8.274,7.542-13.064
			l-0.002-304.03c0-4.81-2.97-10.424-6.633-12.539C222.175,22.105,215.829,22.34,211.663,24.745z"/>
		<path style="fill:#BA68C8;" d="M92.269,430.26c-4.028,1.568-9.199,1.491-12.367-0.337c-3.658-2.112-6.63-7.73-6.63-12.542
			l-0.007-305.064c0.04-1.846,0.476-3.897,1.904-6.465l12.173,6.906c-2.248,2.847-3.439,5.775-3.51,8.79l0.001,301.951
			C83.832,429.291,87.49,432.035,92.269,430.26z"/>
		<path style="opacity:0.25;" d="M92.269,430.26c-4.028,1.568-9.199,1.491-12.367-0.337c-3.658-2.112-6.63-7.73-6.63-12.542
			l-0.007-305.064c0.04-1.846,0.476-3.897,1.904-6.465l12.173,6.906c-2.248,2.847-3.439,5.775-3.51,8.79l0.001,301.951
			C83.832,429.291,87.49,432.035,92.269,430.26z"/>
		<path style="fill:#BA68C8;" d="M90.481,110.029c-3.658,2.112-6.651,7.296-6.651,11.519l-0.002,301.956
			c0,6.498,4.604,9.156,10.231,5.907l130.871-75.558c4.148-2.395,7.542-8.274,7.542-13.064l-0.002-304.03
			c0-4.79-3.394-6.75-7.542-4.354L90.481,110.029z"/>
		<path style="fill:#BA68C8;" d="M97.302,128.643c-3.959,2.285-7.167,7.844-7.167,12.415l0.001,259.789
			c0,4.571,3.209,6.424,7.168,4.138l123.106-71.083c3.942-2.276,7.168-7.863,7.167-12.415l-0.001-259.79
			c0-4.552-3.226-6.414-7.168-4.138L97.302,128.643z"/>
		<path style="opacity:0.45;" d="M97.302,128.643c-3.959,2.285-7.167,7.844-7.167,12.415l0.001,259.789
			c0,4.571,3.209,6.424,7.168,4.138l123.106-71.083c3.942-2.276,7.168-7.863,7.167-12.415l-0.001-259.79
			c0-4.552-3.226-6.414-7.168-4.138L97.302,128.643z"/>
		<path style="fill:#263238;" d="M218.504,315.514L218.503,58.66L97.302,128.643c-3.959,2.285-7.168,7.844-7.168,12.415
			l0.001,256.854l121.201-69.983C215.279,325.653,218.504,320.066,218.504,315.514z"/>
		<g>
			<path d="M148.597,86.343l21.819-12.597c1.302-0.751,2.357-0.218,2.357,1.193c0,1.41-1.055,3.162-2.357,3.914l-21.819,12.597
				c-1.302,0.752-2.357,0.218-2.357-1.192C146.24,88.847,147.296,87.094,148.597,86.343z"/>
			<g>
				<path d="M186.037,64.695c1.221-0.705,2.211-0.134,2.211,1.276c0,1.41-0.99,3.125-2.211,3.83
					c-1.221,0.705-2.211,0.133-2.211-1.277C183.826,67.115,184.816,65.4,186.037,64.695z"/>
				<path d="M194.887,59.592c1.221-0.705,2.211-0.133,2.211,1.277c0,1.41-0.99,3.125-2.211,3.83
					c-1.221,0.705-2.211,0.133-2.211-1.277C192.676,62.012,193.666,60.297,194.887,59.592z"/>
				<path d="M124.126,100.444c1.221-0.705,2.211-0.133,2.211,1.277c0,1.41-0.99,3.125-2.211,3.83
					c-1.221,0.705-2.212,0.133-2.212-1.277C121.915,102.864,122.905,101.149,124.126,100.444z"/>
				<path d="M132.977,95.342c1.221-0.705,2.211-0.134,2.211,1.276c0,1.41-0.99,3.125-2.211,3.83
					c-1.221,0.705-2.211,0.133-2.211-1.277C130.766,97.761,131.755,96.047,132.977,95.342z"/>
			</g>
		</g>
	</g>
</g>
<g id="Window">
	<g id="Window_7_">
		<g>
			<path style="fill:#E0E0E0;" d="M252.118,68.633l-129.424,74.626c-1.61,0.928-2.915,3.187-2.915,5.046v273.787
				c0,1.858,1.307,4.113,2.92,5.036l1.819,1.041c1.613,0.923,4.225,0.918,5.834-0.012l129.426-74.743
				c1.609-0.929,2.914-3.189,2.914-5.047V74.7c0-1.858-1.307-4.113-2.92-5.036l-1.819-1.04
				C256.34,67.7,253.727,67.704,252.118,68.633z"/>
			<g id="XMLID_973_">
				<path style="fill:#FAFAFA;" d="M262.692,348.574c0,2.562-1.798,4.195-4.027,5.475l-127.199,73.447
					c-2.217,1.281-4.027,0.246-4.027-2.328V153.952l0,0c0-2.865,1.528-5.512,4.009-6.945l127.214-73.484
					c1.791-1.035,4.031,0.258,4.031,2.327l0,0V348.574z"/>
			</g>
			<path id="XMLID_972_" style="fill:#E0E0E0;" d="M260.001,74.28c0.755,0,1.569,0.6,1.569,1.57v272.725
				c0,1.737-1.069,3.126-3.466,4.504l-127.2,73.447c-0.451,0.261-0.878,0.399-1.235,0.399c-0.966,0-1.11-1.1-1.11-1.755V153.952
				c0-2.456,1.321-4.746,3.448-5.974l127.214-73.483C259.468,74.352,259.73,74.28,260.001,74.28 M260.001,73.159
				c-0.448,0-0.907,0.114-1.34,0.364l-127.214,73.483c-2.481,1.433-4.009,4.08-4.009,6.946v271.217c0,1.826,0.911,2.877,2.231,2.877
				c0.541,0,1.152-0.177,1.796-0.549l127.199-73.447c2.229-1.281,4.027-2.914,4.027-5.475V75.85
				C262.692,74.281,261.404,73.159,260.001,73.159L260.001,73.159z"/>
			<path style="fill:#F0F0F0;" d="M262.694,74.702v1.144c0-2.064-2.243-3.353-4.038-2.322l-127.21,73.486
				c-1.245,0.707-2.243,1.727-2.927,2.927c-0.022,0.034-0.034,0.056-0.045,0.09l-7.874-4.542c0.538-0.931,1.267-1.75,2.097-2.221
				l129.42-74.63c1.615-0.931,4.228-0.931,5.832-0.011l1.817,1.043C261.382,70.585,262.694,72.84,262.694,74.702z"/>
		</g>
		<g>
			<g id="XMLID_963_">
				<path id="XMLID_967_" style="fill:#455A64;" d="M152.283,151.074c-0.026-0.029-0.039-0.093-0.039-0.192v-0.939l-1.468,0.849
					c-0.081,0.046-0.121,0.003-0.121-0.13v-0.337c0-0.076,0.004-0.138,0.014-0.185c0.01-0.046,0.027-0.107,0.051-0.181l1.561-4.263
					c0.028-0.077,0.053-0.132,0.075-0.166c0.021-0.035,0.055-0.066,0.102-0.093l0.204-0.117c0.062-0.037,0.106-0.038,0.134-0.004
					c0.027,0.033,0.041,0.103,0.041,0.207v3.279l0.324-0.188c0.062-0.035,0.105-0.038,0.13-0.006
					c0.025,0.034,0.037,0.102,0.037,0.206v0.224c0,0.099-0.012,0.177-0.037,0.235c-0.024,0.058-0.067,0.106-0.13,0.141l-0.324,0.188
					v0.939c0,0.099-0.013,0.179-0.039,0.237c-0.027,0.059-0.072,0.107-0.136,0.145l-0.246,0.141
					C152.353,151.1,152.309,151.103,152.283,151.074z M152.34,149.088v-2.339l-1.066,2.954L152.34,149.088z"/>
				<path id="XMLID_964_" style="fill:#455A64;" d="M154.027,149.498c-0.288-0.339-0.431-0.979-0.431-1.918
					c0-0.934,0.145-1.739,0.433-2.413c0.289-0.675,0.695-1.163,1.216-1.464c0.21-0.122,0.406-0.198,0.589-0.224
					c0.182-0.029,0.333-0.007,0.454,0.066c0.028,0.016,0.042,0.044,0.042,0.083c0,0.027-0.006,0.063-0.018,0.108l-0.134,0.49
					c-0.019,0.06-0.037,0.096-0.056,0.108c-0.01,0.005-0.03,0.003-0.06-0.006c-0.21-0.087-0.461-0.048-0.751,0.12
					c-0.352,0.204-0.629,0.54-0.83,1.009c-0.2,0.472-0.301,1.065-0.301,1.785c0,0.725,0.097,1.208,0.292,1.446
					c0.194,0.239,0.461,0.26,0.801,0.065c0.124-0.071,0.244-0.158,0.361-0.262c0.117-0.104,0.213-0.21,0.288-0.318v-1.525
					l-0.612,0.353c-0.062,0.037-0.105,0.038-0.13,0.005c-0.025-0.032-0.038-0.1-0.038-0.205v-0.214c0-0.104,0.012-0.184,0.038-0.239
					c0.024-0.056,0.067-0.101,0.13-0.138l0.977-0.564c0.068-0.039,0.117-0.037,0.146,0.003c0.03,0.04,0.044,0.121,0.044,0.242v2.175
					c0,0.082-0.005,0.147-0.014,0.193c-0.008,0.047-0.029,0.095-0.06,0.146c-0.284,0.483-0.671,0.865-1.159,1.147
					C154.72,149.855,154.314,149.838,154.027,149.498z"/>
			</g>
			<g id="XMLID_932_">
				<g id="XMLID_961_">
					<path id="XMLID_962_" style="fill:#455A64;" d="M166.405,142.007c0,0.725-0.382,1.533-0.852,1.804
						c-0.471,0.272-0.852-0.095-0.852-0.82c0-0.725,0.382-1.533,0.852-1.805C166.023,140.915,166.405,141.282,166.405,142.007z"/>
				</g>
				<g id="XMLID_956_">
					<g id="XMLID_957_">
						<path id="XMLID_959_" style="fill:#455A64;" d="M165.552,139.039c-0.859,0.496-1.605,1.668-1.983,2.975
							c-0.077,0.265-0.037,0.518,0.09,0.598l0.002,0.001c0.161,0.101,0.4-0.109,0.496-0.443c0.264-0.925,0.791-1.752,1.395-2.101
							c0.605-0.349,1.132-0.13,1.395,0.49c0.096,0.226,0.335,0.16,0.497-0.13l0.001-0.003c0.127-0.228,0.166-0.525,0.09-0.701
							C167.158,138.854,166.411,138.543,165.552,139.039z"/>
					</g>
				</g>
				<g id="XMLID_933_">
					<g id="XMLID_940_">
						<path id="XMLID_941_" style="fill:#455A64;" d="M165.552,136.938c-1.277,0.737-2.4,2.413-3.044,4.332
							c-0.095,0.282-0.068,0.566,0.07,0.654l0.003,0.002c0.156,0.1,0.382-0.095,0.489-0.416c0.521-1.568,1.438-2.939,2.482-3.541
							c1.043-0.603,1.964-0.292,2.485,0.674c0.106,0.197,0.332,0.132,0.488-0.148l0,0c0.138-0.246,0.165-0.561,0.071-0.735
							C167.958,136.581,166.832,136.199,165.552,136.938z"/>
					</g>
				</g>
			</g>
			<g>
				<path style="fill:#455A64;" d="M187.82,127.195c-0.026-0.037-0.036-0.088-0.031-0.156c0.006-0.067,0.026-0.131,0.059-0.19
					l1.223-2.191c0.031-0.052,0.061-0.103,0.093-0.153c0.032-0.05,0.067-0.087,0.104-0.108l0.44-0.254
					c0.041-0.024,0.077-0.021,0.107,0.007c0.03,0.029,0.044,0.075,0.044,0.139v5.609c0,0.063-0.014,0.127-0.044,0.19
					c-0.031,0.064-0.066,0.108-0.107,0.131l-0.457,0.264c-0.042,0.024-0.076,0.022-0.107-0.008c-0.03-0.028-0.046-0.075-0.046-0.138
					v-4.288l-0.8,1.426c-0.033,0.059-0.07,0.097-0.11,0.111c-0.039,0.014-0.074,0.003-0.104-0.031L187.82,127.195z"/>
				<path style="fill:#455A64;" d="M190.672,125.547c-0.026-0.036-0.036-0.088-0.03-0.156c0.005-0.066,0.025-0.129,0.058-0.19
					l1.224-2.191c0.029-0.053,0.061-0.103,0.093-0.154c0.031-0.049,0.067-0.086,0.104-0.107l0.439-0.254
					c0.042-0.024,0.077-0.022,0.108,0.008c0.03,0.03,0.045,0.075,0.045,0.138v5.609c0,0.064-0.015,0.127-0.045,0.191
					c-0.03,0.064-0.066,0.108-0.108,0.131l-0.456,0.264c-0.042,0.025-0.077,0.021-0.108-0.008c-0.03-0.029-0.045-0.075-0.045-0.138
					v-4.289l-0.8,1.426c-0.034,0.059-0.07,0.097-0.11,0.111c-0.04,0.014-0.075,0.004-0.104-0.032L190.672,125.547z"/>
				<path style="fill:#455A64;" d="M194.416,123.144c0.042-0.025,0.077-0.021,0.108,0.007c0.03,0.03,0.045,0.076,0.045,0.139v0.851
					c0,0.064-0.015,0.128-0.045,0.191c-0.031,0.065-0.066,0.107-0.108,0.132l-0.524,0.303c-0.041,0.024-0.077,0.022-0.108-0.008
					c-0.03-0.028-0.045-0.075-0.045-0.138v-0.851c0-0.064,0.015-0.127,0.045-0.191c0.031-0.063,0.066-0.107,0.108-0.131
					L194.416,123.144z M194.416,126.182c0.042-0.024,0.077-0.021,0.108,0.007c0.03,0.03,0.045,0.076,0.045,0.139v0.851
					c0,0.064-0.015,0.128-0.045,0.191c-0.031,0.064-0.066,0.107-0.108,0.131l-0.524,0.303c-0.041,0.024-0.077,0.022-0.108-0.008
					c-0.03-0.028-0.045-0.075-0.045-0.138v-0.851c0-0.064,0.015-0.127,0.045-0.192c0.031-0.063,0.066-0.107,0.108-0.131
					L194.416,126.182z"/>
				<path style="fill:#455A64;" d="M197.428,125.762c-0.041,0.024-0.077,0.022-0.108-0.008c-0.03-0.028-0.045-0.076-0.045-0.138
					v-1.051l-1.748,1.009c-0.042,0.024-0.077,0.022-0.107-0.007c-0.031-0.029-0.046-0.076-0.046-0.139v-0.616
					c0-0.081,0.013-0.159,0.036-0.234c0.025-0.076,0.054-0.157,0.087-0.245l1.726-4.313c0.075-0.188,0.152-0.305,0.23-0.35
					l0.429-0.247c0.042-0.024,0.077-0.021,0.108,0.008c0.03,0.029,0.044,0.075,0.044,0.139v3.472l0.486-0.281
					c0.041-0.024,0.077-0.021,0.107,0.008c0.03,0.029,0.045,0.076,0.045,0.139v0.617c0,0.063-0.014,0.127-0.045,0.191
					c-0.03,0.064-0.066,0.107-0.107,0.131l-0.486,0.28v1.051c0,0.063-0.014,0.127-0.044,0.19c-0.031,0.064-0.066,0.108-0.108,0.131
					L197.428,125.762z M197.275,123.48v-1.858l-0.965,2.414L197.275,123.48z"/>
				<path style="fill:#455A64;" d="M199.693,118.612c0-0.064,0.015-0.126,0.046-0.191c0.03-0.064,0.065-0.107,0.107-0.131
					l2.119-1.223c0.042-0.025,0.077-0.022,0.108,0.007c0.03,0.03,0.046,0.075,0.046,0.139v0.617c0,0.063-0.016,0.127-0.046,0.19
					c-0.03,0.064-0.065,0.108-0.108,0.132l-1.583,0.914l-0.062,1.148c0.101-0.122,0.202-0.219,0.302-0.288
					c0.099-0.068,0.181-0.123,0.245-0.159c0.21-0.121,0.406-0.191,0.586-0.208c0.181-0.018,0.337,0.02,0.469,0.115
					c0.131,0.095,0.235,0.245,0.309,0.451c0.076,0.205,0.113,0.47,0.113,0.794c0,0.371-0.038,0.71-0.115,1.017
					c-0.077,0.308-0.182,0.586-0.316,0.833c-0.133,0.248-0.29,0.463-0.47,0.645c-0.18,0.183-0.372,0.332-0.575,0.449
					c-0.26,0.15-0.482,0.232-0.668,0.247c-0.186,0.014-0.341-0.022-0.463-0.111c-0.122-0.089-0.215-0.218-0.276-0.387
					c-0.063-0.17-0.097-0.365-0.104-0.587c-0.005-0.067,0.01-0.131,0.042-0.193c0.032-0.063,0.069-0.104,0.11-0.129l0.457-0.263
					c0.037-0.022,0.071-0.023,0.101-0.004c0.03,0.021,0.051,0.059,0.063,0.116c0.022,0.121,0.058,0.209,0.107,0.264
					c0.048,0.056,0.105,0.09,0.169,0.103c0.065,0.013,0.136,0.004,0.215-0.024c0.079-0.028,0.162-0.068,0.248-0.118
					c0.215-0.124,0.387-0.312,0.518-0.568c0.132-0.256,0.198-0.539,0.198-0.851c0-0.261-0.066-0.441-0.198-0.537
					c-0.131-0.098-0.303-0.088-0.518,0.03c-0.113,0.065-0.203,0.13-0.268,0.194c-0.066,0.064-0.12,0.126-0.161,0.184
					c-0.041,0.059-0.078,0.111-0.113,0.156c-0.034,0.046-0.077,0.084-0.13,0.114l-0.519,0.299c-0.041,0.024-0.077,0.022-0.107-0.007
					c-0.03-0.029-0.045-0.075-0.045-0.139L199.693,118.612z"/>
			</g>
			<g>
				<polygon style="fill:#455A64;" points="136.06,161.138 136.06,159.329 137.627,158.424 137.627,160.233 				"/>
				<polygon style="fill:#455A64;" points="138.411,159.781 138.411,156.162 139.978,155.258 139.978,158.876 				"/>
				<polygon style="fill:#455A64;" points="140.762,158.424 140.762,152.996 142.329,152.091 142.329,157.519 				"/>
				<polygon style="fill:#455A64;" points="143.113,157.066 143.113,149.828 144.68,148.923 144.68,156.161 				"/>
			</g>
			<g id="XMLID_916_">
				<path id="XMLID_922_" style="fill:#455A64;" d="M253.176,87.648c-0.165-0.243-0.372-0.309-0.582-0.187l-5.853,3.366
					c-0.38,0.218-0.677,0.999-0.677,1.777v3.289c0,0.434,0.091,0.806,0.255,1.049c0.07,0.104,0.15,0.176,0.236,0.215
					c0.111,0.05,0.228,0.04,0.346-0.028l5.853-3.365c0.38-0.22,0.677-0.999,0.677-1.778v-3.289
					C253.431,88.263,253.341,87.891,253.176,87.648z M246.48,96.518c-0.06-0.088-0.094-0.264-0.094-0.481v-3.29
					c0-0.573,0.236-1.193,0.515-1.354l5.853-3.366c0.068-0.039,0.133-0.047,0.185-0.024c0.029,0.013,0.054,0.035,0.076,0.067
					c0.06,0.088,0.094,0.264,0.094,0.48v3.289c0,0.575-0.236,1.195-0.515,1.355l-5.853,3.366
					C246.635,96.624,246.541,96.609,246.48,96.518z"/>
				<g id="XMLID_919_">
					<path style="fill:#455A64;" d="M248.012,91.324v3.892l-0.92,0.527c-0.079,0.045-0.18-0.011-0.18-0.101v-2.894
						c0-0.415,0.18-0.886,0.381-1.009L248.012,91.324z"/>
					<polygon style="fill:#455A64;" points="248.438,91.088 249.538,90.449 249.538,94.34 248.438,94.969 					"/>
					<polygon style="fill:#455A64;" points="249.964,90.213 251.063,89.574 251.063,93.477 249.964,94.105 					"/>
					<path style="fill:#455A64;" d="M252.588,88.957v2.804c0,0.516-0.28,0.998-0.729,1.256l-0.37,0.213v-3.892l0.875-0.505
						C252.465,88.777,252.588,88.845,252.588,88.957z"/>
				</g>
				<g id="XMLID_917_">
					<path id="XMLID_918_" style="fill:#455A64;" d="M253.65,88.592c0.162-0.096,0.293,0.373,0.293,1.049v0.611
						c0,0.675-0.133,1.313-0.297,1.424l-0.297,0.201l0.007-3.111C253.356,88.766,253.487,88.688,253.65,88.592z"/>
				</g>
			</g>
			<polygon style="fill:#455A64;" points="237.176,98.537 242.868,93.485 241.112,100.89 240.283,97.809 			"/>
		</g>
		<g>
			<g>
				<path style="fill:#455A64;" d="M192.528,141.657c0.1-0.057,0.176-0.06,0.225-0.008c0.05,0.054,0.094,0.151,0.132,0.293
					l2.304,7.82c0.005,0.024,0.009,0.057,0.009,0.096c0,0.106-0.025,0.212-0.075,0.318c-0.05,0.107-0.109,0.18-0.179,0.22
					l-0.677,0.391c-0.125,0.072-0.213,0.082-0.263,0.029c-0.051-0.053-0.085-0.113-0.104-0.179l-0.404-1.374l-2.97,1.715
					l-0.405,1.841c-0.019,0.088-0.053,0.188-0.103,0.298c-0.051,0.112-0.139,0.203-0.264,0.276l-0.677,0.391
					c-0.07,0.04-0.128,0.035-0.179-0.013c-0.05-0.049-0.075-0.126-0.075-0.232c0-0.039,0.003-0.075,0.01-0.107l2.303-10.481
					c0.037-0.184,0.082-0.332,0.132-0.444c0.051-0.11,0.125-0.194,0.225-0.253L192.528,141.657z M193.046,147.712l-1.035-3.527
					l-1.035,4.722L193.046,147.712z"/>
				<path style="fill:#455A64;" d="M197.428,148.572c0,0.106-0.026,0.212-0.076,0.318c-0.05,0.106-0.109,0.179-0.179,0.219
					l-0.714,0.413c-0.068,0.04-0.128,0.035-0.179-0.013c-0.05-0.049-0.075-0.125-0.075-0.231v-9.497
					c0-0.106,0.025-0.213,0.075-0.319c0.051-0.106,0.111-0.179,0.179-0.219l0.714-0.413c0.07-0.04,0.129-0.035,0.179,0.013
					c0.05,0.049,0.076,0.126,0.076,0.232V148.572z"/>
				<path style="fill:#455A64;" d="M198.716,144.454c0-0.54,0.053-1.079,0.16-1.62c0.106-0.538,0.259-1.042,0.46-1.511
					c0.2-0.467,0.443-0.886,0.729-1.252c0.285-0.369,0.604-0.652,0.954-0.855c0.351-0.203,0.669-0.288,0.955-0.256
					c0.285,0.035,0.528,0.159,0.729,0.375c0.201,0.219,0.355,0.519,0.465,0.904c0.109,0.387,0.165,0.825,0.165,1.317v0.652
					c0,0.106-0.025,0.212-0.075,0.318c-0.051,0.107-0.111,0.179-0.179,0.219l-3.141,1.813c0,0.223,0.03,0.402,0.09,0.534
					c0.06,0.135,0.139,0.232,0.24,0.289c0.1,0.057,0.216,0.078,0.348,0.06c0.133-0.018,0.267-0.066,0.404-0.146
					c0.201-0.117,0.364-0.241,0.489-0.377c0.125-0.136,0.229-0.275,0.31-0.418c0.07-0.117,0.126-0.203,0.17-0.257
					c0.043-0.054,0.103-0.103,0.178-0.146l0.752-0.434c0.07-0.04,0.13-0.038,0.184,0.009c0.052,0.048,0.076,0.126,0.071,0.234
					c-0.007,0.139-0.055,0.342-0.147,0.606c-0.09,0.264-0.227,0.551-0.408,0.858c-0.182,0.308-0.406,0.611-0.673,0.91
					c-0.266,0.298-0.575,0.549-0.926,0.751c-0.35,0.203-0.669,0.294-0.954,0.27c-0.286-0.023-0.529-0.151-0.729-0.382
					c-0.201-0.232-0.355-0.555-0.46-0.972C198.769,145.53,198.716,145.033,198.716,144.454z M201.019,140.952
					c-0.181,0.106-0.337,0.236-0.465,0.392c-0.128,0.157-0.236,0.326-0.325,0.507c-0.089,0.181-0.155,0.364-0.202,0.55
					c-0.048,0.187-0.077,0.355-0.09,0.508l2.125-1.227c-0.012-0.138-0.037-0.276-0.07-0.416c-0.035-0.138-0.092-0.249-0.169-0.336
					c-0.079-0.084-0.183-0.13-0.311-0.139C201.385,140.782,201.22,140.837,201.019,140.952z"/>
				<path style="fill:#455A64;" d="M205.715,136.926c-0.063-0.031-0.129-0.081-0.198-0.147c-0.068-0.066-0.104-0.172-0.104-0.316
					v-1.232c0-0.086,0.02-0.17,0.056-0.248c0.037-0.081,0.085-0.136,0.142-0.169c0.012-0.007,0.025-0.013,0.042-0.017
					c0.015-0.004,0.036-0.004,0.061,0l3.291,1.516c0.088,0.038,0.155,0.084,0.203,0.137c0.046,0.055,0.07,0.16,0.07,0.315v0.608
					c0,0.155-0.023,0.286-0.07,0.395c-0.049,0.108-0.115,0.232-0.203,0.369l-3.291,5.317c-0.024,0.034-0.045,0.059-0.061,0.072
					c-0.017,0.016-0.03,0.024-0.042,0.032c-0.057,0.032-0.105,0.03-0.142-0.005c-0.036-0.035-0.056-0.097-0.056-0.186v-1.23
					c0-0.144,0.035-0.289,0.104-0.435c0.069-0.146,0.135-0.272,0.198-0.375l2.125-3.428L205.715,136.926z"/>
			</g>
			<g>
				<g>
					<path style="fill:#BA68C8;" d="M139.484,173.965l2.126,0.974c0.062,0.031,0.128,0.079,0.196,0.146
						c0.068,0.066,0.104,0.172,0.104,0.318v1.23c0,0.086-0.019,0.17-0.056,0.25c-0.037,0.079-0.085,0.136-0.141,0.168
						c-0.012,0.008-0.027,0.013-0.043,0.018c-0.015,0.004-0.035,0.004-0.06-0.002l-3.292-1.515
						c-0.088-0.035-0.155-0.082-0.202-0.137c-0.046-0.055-0.071-0.159-0.071-0.314v-0.608c0-0.155,0.024-0.286,0.071-0.395
						c0.048-0.109,0.114-0.233,0.202-0.37l3.292-5.318c0.024-0.033,0.044-0.056,0.06-0.07c0.017-0.014,0.031-0.025,0.043-0.032
						c0.056-0.033,0.104-0.031,0.141,0.006c0.038,0.035,0.056,0.098,0.056,0.184v1.23c0,0.146-0.035,0.292-0.104,0.437
						c-0.068,0.146-0.135,0.271-0.196,0.373L139.484,173.965z"/>
				</g>
				<path style="fill:#BA68C8;" d="M144.964,170.935c0-2.929,2.181-6.588,4.872-8.172l4.035-2.375
					c2.691-1.584,4.872-0.459,4.873,2.514c0,2.972-2.192,6.647-4.896,8.209l-3.987,2.302
					C147.156,174.973,144.964,173.864,144.964,170.935z"/>
			</g>
			<g>
				<path style="fill:#BA68C8;" d="M127.438,405.517l-0.002,3.245l0.002,16.406c0,2.574,1.811,3.609,4.027,2.328l127.199-73.447
					c2.229-1.281,4.027-2.914,4.027-5.475l-0.003-21.145L127.438,405.517z"/>
				<path style="opacity:0.65;fill:#FFFFFF;" d="M127.438,405.517l-0.002,3.245l0.002,16.406c0,2.574,1.811,3.609,4.027,2.328
					l127.199-73.447c2.229-1.281,4.027-2.914,4.027-5.475l-0.003-21.145L127.438,405.517z"/>
				<g>
					<path style="fill:#FFFFFF;" d="M144.964,405.904c-1.02,0.589-1.85,2.345-1.85,3.915s0.83,2.368,1.85,1.779
						c1.02-0.589,1.849-2.345,1.849-3.915C146.813,406.113,145.984,405.315,144.964,405.904z"/>
					<path style="fill:#FFFFFF;" d="M148.935,401.098l-1.412,0.815v-0.736c0-0.47-0.248-0.709-0.553-0.532l-4.012,2.316
						c-0.306,0.176-0.553,0.701-0.553,1.171v0.736l-1.412,0.815c-0.634,0.366-1.147,1.453-1.147,2.428v7.188
						c0,0.976,0.514,1.47,1.147,1.104l7.942-4.586c0.634-0.366,1.147-1.453,1.147-2.428v-7.188
						C150.082,401.226,149.568,400.732,148.935,401.098z M144.964,413.014c-1.527,0.882-2.77-0.314-2.77-2.665
						c0-2.351,1.242-4.981,2.77-5.863c1.527-0.881,2.769,0.314,2.769,2.665C147.733,409.503,146.491,412.133,144.964,413.014z"/>
				</g>
				<path style="fill:#FFFFFF;" d="M163.336,390.759c-3.034,1.752-5.494,6.012-5.494,9.516s2.46,4.924,5.495,3.172
					c3.035-1.752,5.494-6.012,5.494-9.515C168.831,390.428,166.371,389.008,163.336,390.759z M166.321,396.469l-2.293,1.323v2.845
					c0,0.382-0.309,0.692-0.692,0.692c-0.382,0-0.692-0.309-0.692-0.692v-2.046l-1.6,0.923c-0.11,0.064-0.228,0.093-0.346,0.093
					c-0.238,0-0.472-0.124-0.598-0.346c-0.192-0.331-0.079-0.754,0.253-0.945l2.292-1.323v-3.097c0-0.383,0.309-0.692,0.692-0.692
					c0.382,0,0.692,0.309,0.692,0.692v2.298l1.601-0.924c0.328-0.193,0.754-0.078,0.944,0.253
					C166.766,395.855,166.652,396.278,166.321,396.469z"/>
				<g>
					<path style="fill:#FAFAFA;" d="M182.014,381.016l68.291-39.427c2.704-1.561,4.896-0.452,4.896,2.477
						c0,2.929-2.192,6.569-4.896,8.131l-68.293,39.429c-2.704,1.561-4.896,0.452-4.895-2.478
						C177.118,386.217,179.31,382.577,182.014,381.016z"/>
					<g>
						<path style="fill:#BA68C8;" d="M250.608,343.022c1.767-1.02,3.2-0.193,3.2,1.847c0,2.04-1.433,4.522-3.199,5.542
							c-1.767,1.02-3.199,0.193-3.2-1.847C247.409,346.524,248.841,344.043,250.608,343.022z"/>
						<path style="fill:#FAFAFA;" d="M252.419,345.492l-1.508-1.452c-0.008-0.007-0.018-0.009-0.026-0.015
							c-0.039-0.033-0.081-0.059-0.13-0.077c-0.022-0.008-0.045-0.01-0.069-0.014c-0.026-0.005-0.05-0.016-0.077-0.016
							c-0.016,0-0.03,0.008-0.046,0.009c-0.011,0.001-0.021-0.004-0.032-0.002c-0.013,0.002-0.022,0.012-0.034,0.015
							c-0.042,0.012-0.08,0.029-0.116,0.051c-0.018,0.012-0.036,0.021-0.052,0.035c-0.037,0.032-0.067,0.071-0.091,0.114
							c-0.006,0.01-0.016,0.016-0.021,0.026l-1.509,3.195c-0.103,0.216-0.01,0.476,0.207,0.579c0.06,0.029,0.123,0.042,0.186,0.042
							c0.162,0,0.319-0.092,0.393-0.25l0.681-1.441v2.946c0,0.24,0.195,0.435,0.435,0.435c0.24,0,0.435-0.196,0.435-0.435v-3.862
							l0.772,0.743c0.171,0.164,0.446,0.161,0.615-0.012C252.598,345.934,252.592,345.659,252.419,345.492z"/>
					</g>
				</g>
			</g>
		</g>
		<g>
			<g>
				<g>
					<g id="Mesages">
						<path style="fill:#E0E0E0;" d="M234.226,154.397c0-4.842-3.4-6.805-7.593-4.384l-66.677,38.477
							c-4.193,2.421-7.593,8.309-7.593,13.152v16.661c0,0.192,0.014,0.371,0.025,0.553l-0.025-0.011
							c0,4.914-0.58,12.486-4.982,14.51c0,0,2.909,0.86,6.047-2.429c1.977-2.072,3-5.06,3.514-7.221
							c0.924-0.071,1.943-0.4,3.015-1.019l66.678-38.478c4.194-2.421,7.593-8.309,7.593-13.152L234.226,154.397z"/>
					</g>
					<g>
						<path style="fill:#455A64;" d="M210.135,173.936c0.342-0.197,0.674-0.316,0.998-0.358c0.324-0.041,0.611,0.008,0.862,0.149
							c0.251,0.141,0.453,0.376,0.606,0.708c0.152,0.332,0.229,0.772,0.229,1.321c0,0.448-0.046,0.863-0.137,1.246
							c-0.091,0.383-0.207,0.747-0.349,1.092c-0.142,0.345-0.297,0.675-0.464,0.99c-0.167,0.315-0.326,0.614-0.475,0.895
							c-0.149,0.283-0.28,0.563-0.392,0.84c-0.113,0.278-0.18,0.546-0.202,0.805c-0.015,0.132-0.047,0.258-0.098,0.376
							c-0.051,0.119-0.117,0.201-0.196,0.248l-0.829,0.479c-0.081,0.046-0.152,0.042-0.213-0.011
							c-0.062-0.054-0.089-0.145-0.082-0.273c0.015-0.445,0.075-0.863,0.181-1.254c0.105-0.391,0.232-0.761,0.381-1.111
							c0.149-0.349,0.309-0.679,0.48-0.991c0.171-0.311,0.329-0.607,0.475-0.887c0.146-0.28,0.265-0.545,0.36-0.796
							c0.094-0.25,0.142-0.493,0.142-0.729c0-0.425-0.116-0.708-0.349-0.848c-0.233-0.139-0.542-0.098-0.927,0.125
							c-0.618,0.356-1.073,1.095-1.364,2.214c-0.036,0.144-0.075,0.259-0.115,0.343c-0.04,0.085-0.108,0.155-0.202,0.209
							l-0.884,0.51c-0.066,0.038-0.122,0.036-0.169-0.003c-0.047-0.04-0.071-0.115-0.071-0.228c0.007-0.396,0.085-0.841,0.234-1.336
							c0.149-0.494,0.349-0.979,0.6-1.454c0.251-0.475,0.546-0.916,0.884-1.324C209.387,174.474,209.749,174.158,210.135,173.936z
							 M210.571,183.223c0.08-0.046,0.149-0.041,0.207,0.015c0.058,0.056,0.087,0.146,0.087,0.269v1.478
							c0,0.124-0.029,0.247-0.087,0.37c-0.058,0.123-0.127,0.208-0.207,0.254l-0.938,0.542c-0.08,0.046-0.149,0.041-0.208-0.014
							c-0.058-0.056-0.087-0.145-0.087-0.269v-1.478c0-0.123,0.03-0.246,0.087-0.37c0.058-0.123,0.128-0.208,0.208-0.254
							L210.571,183.223z"/>
						<path style="fill:#455A64;" d="M217.165,169.874c0.342-0.197,0.674-0.317,0.998-0.358c0.324-0.041,0.611,0.008,0.862,0.15
							c0.251,0.14,0.453,0.376,0.606,0.708c0.152,0.332,0.228,0.772,0.228,1.321c0,0.449-0.045,0.863-0.136,1.246
							c-0.091,0.382-0.207,0.747-0.349,1.091c-0.142,0.346-0.297,0.675-0.464,0.99c-0.168,0.315-0.326,0.614-0.475,0.896
							c-0.149,0.283-0.28,0.563-0.393,0.839c-0.112,0.278-0.18,0.546-0.202,0.806c-0.014,0.131-0.047,0.257-0.098,0.376
							c-0.051,0.119-0.117,0.202-0.196,0.248l-0.83,0.479c-0.08,0.046-0.151,0.043-0.212-0.011c-0.062-0.054-0.09-0.145-0.082-0.272
							c0.015-0.445,0.075-0.863,0.18-1.254c0.106-0.391,0.233-0.761,0.382-1.111c0.149-0.349,0.309-0.679,0.48-0.99
							c0.171-0.312,0.329-0.607,0.475-0.887c0.146-0.28,0.265-0.545,0.36-0.796c0.094-0.25,0.141-0.493,0.141-0.729
							c0-0.425-0.116-0.708-0.349-0.848c-0.233-0.14-0.542-0.098-0.927,0.124c-0.618,0.357-1.073,1.095-1.363,2.215
							c-0.036,0.144-0.075,0.258-0.115,0.342c-0.04,0.085-0.108,0.155-0.202,0.209l-0.884,0.511
							c-0.066,0.038-0.122,0.036-0.169-0.004c-0.047-0.04-0.071-0.116-0.071-0.227c0.007-0.396,0.085-0.842,0.234-1.336
							c0.149-0.495,0.349-0.98,0.6-1.454c0.251-0.475,0.546-0.917,0.884-1.325C216.418,170.412,216.779,170.096,217.165,169.874z
							 M217.602,179.162c0.08-0.046,0.148-0.042,0.207,0.015c0.058,0.056,0.087,0.146,0.087,0.269v1.478
							c0,0.123-0.029,0.246-0.087,0.37c-0.058,0.123-0.127,0.208-0.207,0.253l-0.938,0.542c-0.081,0.046-0.149,0.041-0.208-0.015
							c-0.058-0.056-0.087-0.146-0.087-0.268v-1.478c0-0.124,0.03-0.247,0.087-0.37c0.058-0.123,0.127-0.207,0.208-0.254
							L217.602,179.162z"/>
						<path style="fill:#455A64;" d="M224.267,165.773c0.342-0.197,0.675-0.317,0.999-0.358c0.323-0.041,0.611,0.008,0.861,0.15
							c0.251,0.14,0.453,0.376,0.606,0.708c0.153,0.332,0.229,0.772,0.229,1.321c0,0.449-0.045,0.863-0.136,1.246
							c-0.091,0.383-0.207,0.747-0.349,1.091c-0.142,0.346-0.297,0.675-0.464,0.99c-0.167,0.315-0.325,0.614-0.475,0.896
							c-0.149,0.283-0.279,0.563-0.392,0.839c-0.112,0.278-0.18,0.546-0.202,0.806c-0.015,0.131-0.047,0.257-0.098,0.376
							c-0.05,0.119-0.116,0.202-0.196,0.248l-0.83,0.479c-0.08,0.046-0.151,0.043-0.213-0.011c-0.061-0.054-0.089-0.145-0.082-0.272
							c0.015-0.445,0.075-0.863,0.18-1.254c0.106-0.391,0.233-0.761,0.382-1.111c0.149-0.349,0.309-0.679,0.48-0.99
							c0.171-0.312,0.329-0.607,0.475-0.887c0.146-0.28,0.265-0.545,0.36-0.796c0.094-0.25,0.142-0.493,0.142-0.729
							c0-0.425-0.117-0.708-0.349-0.848c-0.233-0.14-0.542-0.098-0.928,0.124c-0.618,0.357-1.073,1.095-1.363,2.215
							c-0.037,0.144-0.075,0.258-0.115,0.342c-0.04,0.085-0.108,0.155-0.202,0.209l-0.884,0.511
							c-0.065,0.038-0.121,0.036-0.169-0.004c-0.047-0.04-0.071-0.116-0.071-0.227c0.007-0.396,0.085-0.842,0.234-1.336
							c0.149-0.495,0.349-0.98,0.6-1.455c0.251-0.475,0.545-0.917,0.884-1.325C223.519,166.311,223.882,165.995,224.267,165.773z
							 M224.703,175.061c0.08-0.046,0.149-0.042,0.207,0.015c0.058,0.056,0.087,0.146,0.087,0.269v1.478
							c0,0.123-0.029,0.246-0.087,0.37c-0.058,0.123-0.127,0.208-0.207,0.253l-0.938,0.542c-0.08,0.046-0.149,0.041-0.207-0.015
							c-0.058-0.056-0.087-0.146-0.087-0.268v-1.478c0-0.124,0.029-0.247,0.087-0.37c0.058-0.123,0.127-0.207,0.207-0.254
							L224.703,175.061z"/>
					</g>
					<g>
						<g>
							<path style="fill:#FAFAFA;" d="M161.75,198.561c-0.346,0-0.682-0.179-0.867-0.5c-0.276-0.479-0.112-1.09,0.366-1.366
								l64.323-37.137c0.477-0.276,1.089-0.113,1.366,0.366c0.276,0.479,0.112,1.09-0.366,1.366l-64.323,37.137
								C162.092,198.518,161.92,198.561,161.75,198.561z"/>
						</g>
						<g>
							<path style="fill:#FAFAFA;" d="M161.75,205.891c-0.346,0-0.683-0.18-0.867-0.501c-0.276-0.479-0.111-1.09,0.367-1.365
								l40.62-23.401c0.479-0.277,1.091-0.111,1.365,0.367c0.276,0.479,0.111,1.09-0.367,1.365l-40.62,23.401
								C162.091,205.848,161.919,205.891,161.75,205.891z"/>
						</g>
						<g>
							<path style="fill:#FAFAFA;" d="M161.75,213.272c-0.346,0-0.683-0.18-0.867-0.501c-0.276-0.479-0.111-1.09,0.367-1.365
								l40.62-23.401c0.479-0.277,1.091-0.111,1.365,0.367c0.276,0.478,0.111,1.09-0.367,1.365l-40.62,23.401
								C162.091,213.229,161.919,213.272,161.75,213.272z"/>
						</g>
					</g>
				</g>
				<g>
					<g>
						<path style="fill:#455A64;" d="M141.439,237.512c-2.24,1.293-4.062-0.084-4.062-3.071c0-2.987,1.822-6.468,4.062-7.761
							c2.24-1.293,4.062,0.084,4.062,3.071C145.501,232.737,143.679,236.219,141.439,237.512z"/>
					</g>
					<g>
						<path style="fill:#FAFAFA;" d="M142.855,231.418l-2.833,1.635c-0.383,0.221-0.709,0.781-0.768,1.319l-0.191,1.744
							c0.72,1.754,3.975-0.383,4.695-2.968l-0.137-1.298C143.564,231.381,143.238,231.197,142.855,231.418z"/>
						<path style="fill:#FAFAFA;" d="M142.787,229.003c0,0.992-0.603,2.145-1.348,2.575c-0.744,0.43-1.348-0.026-1.348-1.019
							s0.603-2.145,1.348-2.575C142.183,227.555,142.787,228.011,142.787,229.003z"/>
					</g>
				</g>
			</g>
			<g>
				<g id="Mesages_1_">
					<path style="fill:#E0E0E0;" d="M201.186,281.449c0-4.842-3.4-6.805-7.593-4.384l-33.637,19.383
						c-4.193,2.421-7.593,8.309-7.593,13.152v3.303c0,0.192,0.014,0.371,0.025,0.553l-0.025-0.011c0,4.914-0.58,12.486-4.982,14.51
						c0,0,2.909,0.86,6.047-2.429c1.977-2.072,3-5.06,3.514-7.221c0.924-0.071,1.943-0.4,3.015-1.019l33.638-19.384
						c4.194-2.421,7.593-8.309,7.593-13.152L201.186,281.449z"/>
				</g>
				<g>
					<g>
						<path style="fill:#455A64;" d="M141.439,336.012c-2.24,1.293-4.062-0.084-4.062-3.071c0-2.987,1.822-6.468,4.062-7.761
							s4.062,0.084,4.062,3.071S143.679,334.719,141.439,336.012z"/>
					</g>
					<g>
						<path style="fill:#FAFAFA;" d="M142.855,329.918l-2.833,1.635c-0.383,0.221-0.709,0.781-0.768,1.319l-0.191,1.744
							c0.72,1.754,3.975-0.383,4.695-2.968l-0.137-1.298C143.564,329.88,143.238,329.697,142.855,329.918z"/>
						<path style="fill:#FAFAFA;" d="M142.787,327.503c0,0.992-0.603,2.145-1.348,2.575c-0.744,0.43-1.348-0.026-1.348-1.019
							s0.603-2.145,1.348-2.575C142.183,326.054,142.787,326.51,142.787,327.503z"/>
					</g>
				</g>
				<g>
					<g>
						<path style="fill:#FAFAFA;" d="M161.052,304.108c-0.346,0-0.683-0.18-0.867-0.501c-0.276-0.478-0.111-1.09,0.367-1.366
							l32.161-18.51c0.479-0.276,1.091-0.11,1.365,0.367c0.276,0.478,0.111,1.09-0.367,1.365l-32.161,18.511
							C161.392,304.065,161.221,304.108,161.052,304.108z"/>
					</g>
					<g>
						<path style="fill:#FAFAFA;" d="M161.052,310.488c-0.346,0-0.683-0.18-0.867-0.501c-0.276-0.478-0.111-1.09,0.367-1.366
							l32.161-18.51c0.479-0.276,1.091-0.11,1.365,0.367c0.276,0.479,0.111,1.09-0.367,1.365l-32.161,18.511
							C161.392,310.445,161.221,310.488,161.052,310.488z"/>
					</g>
				</g>
			</g>
			<g>
				<g id="Mesages_2_">
					<path style="fill:#E0E0E0;" d="M234.226,301.885c0-4.842-3.4-6.805-7.593-4.384l-66.677,38.478
						c-4.193,2.421-7.593,8.309-7.593,13.152v15.364c0,0.192,0.014,0.371,0.025,0.553l-0.025-0.01c0,4.914-0.58,12.486-4.982,14.51
						c0,0,2.909,0.86,6.047-2.429c1.977-2.072,3-5.06,3.514-7.221c0.924-0.071,1.943-0.4,3.015-1.019l66.678-38.478
						c4.194-2.421,7.593-8.309,7.593-13.152L234.226,301.885z"/>
				</g>
				<g>
					<g>
						<path style="fill:#455A64;" d="M141.439,387.606c-2.24,1.293-4.062-0.084-4.062-3.071c0-2.987,1.822-6.468,4.062-7.761
							s4.062,0.084,4.062,3.071C145.501,382.831,143.679,386.313,141.439,387.606z"/>
					</g>
					<g>
						<path style="fill:#FAFAFA;" d="M142.855,381.512l-2.833,1.635c-0.383,0.221-0.709,0.781-0.768,1.319l-0.191,1.744
							c0.72,1.754,3.975-0.383,4.695-2.968l-0.137-1.298C143.564,381.475,143.238,381.291,142.855,381.512z"/>
						<path style="fill:#FAFAFA;" d="M142.787,379.097c0,0.992-0.603,2.145-1.348,2.575c-0.744,0.43-1.348-0.026-1.348-1.019
							s0.603-2.145,1.348-2.575C142.183,377.649,142.787,378.105,142.787,379.097z"/>
					</g>
				</g>
				<g>
					<g>
						<path style="fill:#FAFAFA;" d="M161.75,345.347c-0.346,0-0.682-0.179-0.867-0.5c-0.276-0.478-0.112-1.09,0.366-1.366
							l64.993-37.523c0.477-0.277,1.089-0.113,1.366,0.366c0.276,0.479,0.112,1.09-0.366,1.366l-64.993,37.523
							C162.092,345.304,161.92,345.347,161.75,345.347z"/>
					</g>
					<g>
						<path style="fill:#FAFAFA;" d="M161.75,352.677c-0.346,0-0.683-0.18-0.867-0.501c-0.276-0.478-0.111-1.09,0.367-1.365
							l64.993-37.451c0.479-0.277,1.091-0.111,1.365,0.367c0.276,0.478,0.111,1.09-0.367,1.365l-64.993,37.451
							C162.091,352.634,161.919,352.677,161.75,352.677z"/>
					</g>
					<g>
						<path style="fill:#FAFAFA;" d="M161.75,360.058c-0.346,0-0.683-0.18-0.867-0.501c-0.276-0.478-0.111-1.09,0.367-1.365
							l64.993-37.451c0.479-0.276,1.091-0.11,1.365,0.367c0.276,0.478,0.111,1.09-0.367,1.365l-64.993,37.451
							C162.091,360.015,161.919,360.058,161.75,360.058z"/>
					</g>
				</g>
			</g>
		</g>
	</g>
</g>
<g id="Character">
	<g id="Character_12_">
		<g id="Bottom_4_">
			<g id="XMLID_729_">
				<g id="XMLID_730_">
					<g>
						<g id="XMLID_829_">
							<path id="XMLID_831_" style="fill:#FFA8A7;" d="M334.971,386.693c-0.188-4.604-2.838-51.357-2.838-51.357l23.298,16.779
								c-3.634,26.536-5.162,34.642-5.421,39.061l0,0c0.032,0.104,0.113,0.483,0.081,1.137c-0.228,5.25-6.573,7.864-11.574,11.194
								c-1.976,1.315-7.723,5.203-13.474,7.702c-3.6,1.564-10.78,1.468-11.583-0.724c6.087-4.088,13.122-8.543,18.022-13.283
								C333.822,394.939,335.197,392.218,334.971,386.693z"/>
						</g>
						<g>
							<path style="fill:#263238;" d="M306.369,415.85c-0.283-0.01-0.833,3.153,0.655,4.559c1.718,1.623,6.838,4.371,13.766,3.71
								c6.929-0.661,10.744-2.697,13.593-4.947c2.848-2.25,6.841-5.424,9.986-6.013c2.921-0.546,6.118-1.769,7.08-2.647
								c0.962-0.878,0.988-4.932,0.988-4.932L306.369,415.85z"/>
							<path id="XMLID_827_" style="fill:#455A64;" d="M350.1,389.894c0,0,0.753-0.009,0.896,0.935
								c0.169,1.124,0.369,4.394,0.755,6.242c0.535,2.569,0.962,7.838,0.504,9.9c-0.459,2.061-5.237,3.334-8.299,4.395
								c-3.128,1.084-6.787,3.418-10.017,5.931c-3.343,2.601-10.262,5.084-14.758,4.99c-6.863-0.143-11.233-2.195-12.509-4.752
								c-1.578-3.163-0.974-5.349,7.05-8.783c1.519-0.65,6.832-3.53,8.949-4.928c4.797-3.169,7.948-6.567,10.381-11.964
								c0.285-0.631,0.584-1.33,1.197-1.634c0.47-0.233,1.024-0.178,1.538-0.085c1.306,0.234,5.087,0.851,6.262,1.475
								c1.038,0.551,2.516,1.201,2.441,2.579c-0.026,0.479-0.18,0.942-0.35,1.391c-0.105,0.278-0.194,0.65,0.042,0.824
								c0.223,0.165,0.533-0.003,0.746-0.183c0.854-0.722,1.496-1.665,2.224-2.518c0.39-0.457,0.813-0.893,1.297-1.248
								c0.44-0.323,0.991-0.471,1.384-0.841C349.832,391.618,350.053,390.54,350.1,389.894z"/>
							<path style="fill:#FAFAFA;" d="M313.496,408.749c9.905,1.051,14.052,7.571,12.795,12.285
								c-2.495,0.799-5.055,1.298-7.109,1.255c-6.863-0.143-11.515-2.202-12.791-4.759
								C304.901,414.545,306.351,411.215,313.496,408.749z"/>
							<g>
								<g>
									<path style="fill:#F0F0F0;" d="M326.983,410.185c0.108,0.004,0.218-0.028,0.311-0.1c0.214-0.165,0.255-0.474,0.095-0.692
										c-1.317-1.772-5.217-4.194-8.842-3.923c-0.268,0.019-0.47,0.257-0.451,0.528c0.018,0.271,0.243,0.476,0.517,0.457
										c3.383-0.243,6.957,2.131,8.001,3.536C326.705,410.113,326.842,410.18,326.983,410.185z"/>
								</g>
								<g>
									<path style="fill:#F0F0F0;" d="M330.988,407.767c0.108,0.004,0.218-0.028,0.311-0.1c0.214-0.165,0.256-0.475,0.095-0.692
										c-1.318-1.773-5.22-4.201-8.842-3.923c-0.268,0.019-0.47,0.257-0.451,0.528c0.018,0.271,0.239,0.475,0.517,0.457
										c3.383-0.247,6.957,2.131,8.001,3.536C330.71,407.695,330.847,407.762,330.988,407.767z"/>
								</g>
								<g>
									<path style="fill:#F0F0F0;" d="M334.945,404.672c0.108,0.004,0.218-0.029,0.311-0.101c0.214-0.165,0.256-0.474,0.095-0.692
										c-1.317-1.773-5.233-4.197-8.842-3.923c-0.268,0.019-0.47,0.257-0.451,0.528c0.018,0.271,0.24,0.474,0.518,0.457
										c3.378-0.245,6.956,2.131,8.001,3.536C334.667,404.6,334.804,404.667,334.945,404.672z"/>
								</g>
								<g>
									<path style="fill:#F0F0F0;" d="M338.854,401.564c0.105,0.004,0.214-0.027,0.305-0.096c0.217-0.161,0.263-0.471,0.105-0.69
										c-1.808-2.512-6.046-4.275-9.666-4.003c-0.268,0.019-0.47,0.257-0.451,0.528c0.018,0.271,0.242,0.468,0.517,0.457
										c3.26-0.243,7.211,1.377,8.817,3.603C338.572,401.491,338.712,401.559,338.854,401.564z"/>
								</g>
							</g>
						</g>
					</g>
					<g>
						<g id="XMLID_825_">
							<path id="XMLID_826_" style="fill:#FFA8A7;" d="M377.167,349.742l24.547-4.105c0.32,14.551-0.719,33.959-1.201,47.373
								c-0.092,2.569,1.016,19.951,0.168,25.269c-1.274,7.989-12.004,7.247-12.794,2.513c-0.792-4.733-1.155-24.899-1.288-26.992
								c-0.32-8.751-5.006-23.546-8.185-39.176C378.258,353.857,377.316,350.49,377.167,349.742z"/>
						</g>
						<g>
							<path style="fill:#263238;" d="M384.019,424.223c-0.002,4.672,0.613,7.805,2.304,10.643c1.691,2.837,5.167,3.898,8.799,3.305
								c3.631-0.593,8.356-2.465,9.648-6.421c1.292-3.956,1.268-6.719,0.743-11.083L384.019,424.223z"/>
							<path id="XMLID_733_" style="fill:#455A64;" d="M400.568,391.529c1.467,0.187,1.416,6.273,1.85,12.579
								c0.465,6.759,2.552,9.664,3,15.21c0.513,6.336-0.048,9.121-2.797,12.776c-2.748,3.655-11.834,6.872-15.828,1.18
								c-3.256-4.64-3.075-9.567-2.335-15.821c0.766-6.466,1.363-11.01,1.389-15.949c0.025-4.721-0.698-9.132,0.618-9.582
								c0.052,0.697,0.09,1.579,0.15,2.263c0.045,0.525,0.024,3.081,0.848,3.153c0.116-0.596,0.139-1.157,0.134-1.771
								c-0.004-0.534,0.085-1.111,0.505-1.494c0.423-0.386,1.733-0.649,2.338-0.719c1.468-0.17,2.942-0.313,4.424-0.345
								c0.738-0.016,1.477-0.005,2.214,0.045c0.597,0.041,1.298,0.126,1.852,0.343c0.34,0.133,0.647,0.37,0.756,0.684
								c0.08,0.232,0.046,0.48,0.029,0.722c-0.029,0.434,0.004,0.872,0.099,1.3c0.042,0.188,0.172,0.423,0.386,0.391
								c0.174-0.026,0.254-0.211,0.265-0.366c0.056-0.758-0.017-1.315,0.002-2.199c0.009-0.408,0.036-0.796,0.057-1.205
								C400.544,392.319,400.572,391.932,400.568,391.529z"/>
							<path style="fill:#FAFAFA;" d="M405.585,422.982c-0.005,3.916-0.435,6.573-2.587,9.434
								c-2.749,3.655-12.547,6.843-16.54,1.152c-1.987-2.832-2.355-6.066-2.436-9.348
								C386.911,420.177,401.705,419.175,405.585,422.982z"/>
							<g>
								<g>
									<path style="fill:#F0F0F0;" d="M388.258,417.607c0.062-0.002,0.124-0.013,0.185-0.034
										c0.061-0.021,6.243-2.162,12.793-0.424c0.29,0.072,0.593-0.069,0.68-0.324c0.085-0.255-0.082-0.525-0.372-0.602
										c-6.928-1.834-13.248,0.36-13.515,0.452c-0.28,0.1-0.414,0.381-0.3,0.629C387.817,417.497,388.034,417.613,388.258,417.607
										z"/>
								</g>
								<g>
									<path style="fill:#F0F0F0;" d="M401.189,412.445c0.208-0.007,0.402-0.117,0.485-0.298c0.113-0.247-0.022-0.53-0.301-0.632
										c-6.478-2.355-13.206,0.231-13.49,0.344c-0.276,0.108-0.399,0.392-0.273,0.637c0.125,0.243,0.454,0.348,0.724,0.245
										c0.064-0.024,6.599-2.531,12.626-0.332C401.034,412.437,401.112,412.448,401.189,412.445z"/>
								</g>
								<g>
									<path style="fill:#F0F0F0;" d="M401.103,408.008c0.204-0.006,0.395-0.114,0.48-0.29c0.119-0.246-0.01-0.53-0.288-0.636
										c-7.117-2.715-13.49,0.168-13.758,0.291c-0.267,0.124-0.369,0.415-0.227,0.652c0.142,0.237,0.48,0.33,0.74,0.205
										c0.059-0.028,6.19-2.787,12.814-0.262C400.943,407.998,401.025,408.011,401.103,408.008z"/>
								</g>
								<g>
									<path style="fill:#EBEBEB;" d="M400.985,403.022c0.201-0.006,0.39-0.111,0.478-0.284c0.123-0.243-0.001-0.529-0.278-0.639
										c-6.663-2.642-13.573,0.291-13.864,0.42c-0.271,0.116-0.38,0.406-0.244,0.646c0.133,0.24,0.461,0.342,0.734,0.22
										c0.068-0.029,6.743-2.861,12.93-0.406C400.82,403.011,400.903,403.024,400.985,403.022z"/>
								</g>
							</g>
						</g>
					</g>
					<path id="XMLID_731_" style="fill:#455A64;" d="M393.108,236.798c1.528,27.977,4.987,79.444,4.987,79.444
						c0.333,3.257,3.313,17.647,3.618,29.395c0.49,18.863-0.266,31.943-0.266,31.943s-10.383,3.866-17.891,0.889
						c0,0-9.592-37.948-12.1-50.234c-2.987-14.634-10.081-43.335-10.081-43.335l-5.006,38.664c0,0,1.568,13.764,0,25.138
						c-1.068,7.748-3.967,28.054-3.967,28.054s-9.985,3.199-18.15,0.597c0,0-3.276-50.465-3.759-57.607
						c-0.485-7.177-2.105-43.799-0.352-88.866L393.108,236.798z"/>
					<path style="fill:#37474F;" d="M361.376,284.9l-4.172-25.048c0,0-7.986-0.114-14.026-6.004c0,0,0.649,5.772,11.817,9.472
						l3.83,20.787l-2.456,39.456L361.376,284.9z"/>
				</g>
			</g>
		</g>
		<g id="Top_4_">
			<g>
				<path style="fill:#FFA8A7;" d="M338.646,154.888c-8.089,0.944-11.401,6.798-15.9,15.945c-3.578,7.276-10.589,23.72-10.589,23.72
					s-21.902-5.514-25.806-7.982c-2.676-1.692-2.18-2.772-6.6-5.634c-3.113-2.016-6.418-2.96-8.365-4.952
					c-1.543-1.577-3.982,0.938-1.526,4.306c0.847,1.162,2.602,2.612,2.602,2.612s-2.946-0.589-4.589-1.764
					c-3.511-2.511-5.063-5.705-9.39-6.218c-1.829-0.217-2.189,1.049-1.508,2.455c-0.596,0.204-1.869,1.314-1.047,3.106
					c-1.059,0.299-1.141,2.405-0.74,3.012c-0.537,0.778-1.441,3.06,2.55,7.475c1.767,1.955,5.716,5.142,6.81,5.678
					c0.311,0.153,4.517,1.377,9.694,2.364c4.888,0.932,6.349,1.508,10.536,3.261c4.837,2.025,17.058,8.328,27.891,12.354
					c9.015,3.351,11.556-1.795,15.827-9.807c2.822-5.293,9.418-22.813,9.418-22.813
					C341.335,171.474,341.779,161.363,338.646,154.888z"/>
				<path style="fill:#F28F8F;" d="M269.515,189.712c5.345-1.982,11.22,0.363,12.985,4.691c0-2.506-1.391-4.662-3.921-5.895
					C276.395,187.444,272.311,187.73,269.515,189.712z"/>
				<path style="fill:#455A64;" d="M337.973,154.888c-7.603,1.585-9.332,3.289-14.86,14.465
					c-5.429,10.976-11.347,24.62-11.347,24.62l-14.182-3.39c0,0,0.816,2.674-0.819,8.406c-1.636,5.731-5.036,7.478-5.036,7.478
					s10.938,5.556,19.579,8.701c8.641,3.144,10.537,1.638,13.296-2.357c2.76-3.994,15.004-32.336,15.004-32.336
					S344.462,163.326,337.973,154.888z"/>
				<path style="fill:#37474F;" d="M298.359,190.768l-5.781-1.729c0,0,0.869,3.682-0.323,7.836c-1.681,5.861-4.67,7.691-4.67,7.691
					l5.781,2.86C293.367,207.427,299.755,200.105,298.359,190.768z"/>
			</g>
			<g id="XMLID_701_">
				<path id="XMLID_720_" style="fill:#F0F0F0;" d="M333.472,174.458c1.289-9.348,5.517-22.226,20.007-22.802l15.699,1.203
					c4.602,1.198,21.785,6.532,21.785,6.532l1.052,37.346c0,0,1.145,23.946,0.792,39.597c-13.387,8.489-44.185,11.547-62.485-2.337
					C329.779,221.077,332.195,183.715,333.472,174.458z"/>
				<g>
					<g id="XMLID_702_">
						<g id="XMLID_716_">
							<path style="fill:#263238;" d="M339.801,119.509c-2.397-5.41-0.123-12.617,2.683-16.012
								c4.057-4.908,10.403-7.052,19.991-6.513c7.29,0.409,14.477,3.395,15.885,10.867c5.868,1.713,5.257,11.337,3.825,15.589
								c-2.906,8.629-8.677,16.157-8.751,20.562L339.801,119.509z"/>
							<g>
								<path style="fill:#FFA8A7;" d="M339.923,139.768c1.176,4.151,3.602,7.184,7.448,7.762c2.3,0.351,6.072-0.003,6.072-0.003
									l0.001,5.584c-6.42,9.177,13.552,9.921,20.407-0.111l-0.173-17.096c0,0,2.369,2.658,6.234,0.11
									c2.647-1.758,4.532-6.256,2.571-10.375c-1.944-4.046-5.784-2.345-6.964-1.107c-1.171,1.237-2.543,3.565-3.531,3.247
									c-1.505-0.491-2.008-1.43-2.4-2.422c-0.699-1.735-1.206-3.978-1.302-7.854c-1.075-0.539-1.827-1.125-2.739-2.117
									c-1.663-1.825-1.813-4.03-1.896-6.028c-8.324-2.553-18.909-1.433-22.347,1.26c-1.967,3.512-1.992,11.653-2.294,16.342
									C338.682,132.051,338.935,136.295,339.923,139.768z"/>
							</g>
							<path style="fill:#F28F8F;" d="M353.444,147.524c4.251-0.264,12.792-2.3,15.056-4.687c2.264-2.387,3.204-7.248,3.204-7.248
								s-0.306,6.136-2.051,8.853c-1.745,2.716-6.188,3.923-8.885,4.61c-2.697,0.687-7.289,1.175-7.289,1.175L353.444,147.524z"/>
						</g>
						<g id="XMLID_703_">
							<path id="XMLID_715_" style="fill:#263238;" d="M356.039,125.11c0.003,1.007,0.791,1.819,1.76,1.814
								c0.969-0.005,1.753-0.826,1.75-1.833c-0.003-1.007-0.791-1.819-1.76-1.814C356.82,123.282,356.037,124.103,356.039,125.11z"
								/>
							<path id="XMLID_708_" style="fill:#263238;" d="M341.963,120.926l4.262-0.714c-0.154-1.194-1.234-2.001-2.411-1.804
								C342.638,118.605,341.809,119.733,341.963,120.926z"/>
							<path id="XMLID_263_" style="fill:#263238;" d="M356.725,120.211l4.118,1.308c0.407-1.133-0.185-2.344-1.323-2.705
								C358.383,118.453,357.132,119.078,356.725,120.211z"/>
							<path id="XMLID_707_" style="fill:#263238;" d="M342.624,124.848c0.003,1.007,0.791,1.819,1.76,1.813
								c0.969-0.006,1.752-0.826,1.75-1.833c-0.003-1.007-0.791-1.819-1.76-1.814C343.405,123.02,342.621,123.841,342.624,124.848z"
								/>
							<polygon id="XMLID_706_" style="fill:#F28F8F;" points="351.56,121.137 350.364,133.764 343.581,131.76 							"/>
							<g>
								<path style="fill:#B16668;" d="M356.86,135.1c0.668,1.603-0.089,3.445-1.693,4.114s-3.445-0.089-4.114-1.693L356.86,135.1z"
									/>
								<path style="fill:#F28F8F;" d="M356.363,136.79c-1.534,0-2.793,1.133-3.013,2.606c0.59,0.117,1.22,0.067,1.817-0.182
									c1.021-0.426,1.694-1.328,1.88-2.34C356.826,136.822,356.599,136.79,356.363,136.79z"/>
							</g>
						</g>
					</g>
				</g>
				<path style="fill:#BA68C8;" d="M329.937,187.372c1.708-15.66,3.692-26.874,8.036-32.484c0,0,3.774-1.159,15.506-4.214v0.981
					c-1.902,1.446-3.148,3.176-3.825,4.192c-1.918,2.879-4.191,7.784-6.415,16.234c-3.03,11.512-4.544,37.151-4.7,50.999
					c-0.156,13.848-0.764,30.338-0.764,30.338s-7.021-1.432-9.614-4.974C328.161,248.444,328.651,199.159,329.937,187.372z"/>
				<path style="fill:#BA68C8;" d="M368.042,170.614c1.49-6.309,4.262-16.282,5.641-19.496l17.57,6.314
					c4.813,2.22,8.585,5.796,7.377,13.909l-5.088,35.668l1.237,40.712c-7.468,11.607-31.237,10.597-31.237,10.597
					s-0.401-11.921,0.316-43.849C364.26,196.573,366.142,178.66,368.042,170.614z"/>
				<path style="fill:#455A64;" d="M366.74,177.691c1.013-9.297,4.777-23.041,7.068-28.895v-2.627c0,0,8.145,4.208,11.604,6.212
					c3.459,2.004,4.509,4.573,4.509,4.573l-6.628-2.382c0,0-3.202,1.188-7.127,5.689C372.241,164.762,366.74,177.691,366.74,177.691
					z"/>
				<path style="fill:#455A64;" d="M353.479,148.796l-0.035,4.314c0,0-4.207,3.984-6.865,10.24
					c-2.658,6.255-4.527,14.34-4.527,14.34s-1.934-7.783,0.352-16.444c1.465-5.551,3.061-7.448,4.19-8.663
					c3.14-3.382,6.849-5.06,6.849-5.06L353.479,148.796z"/>
			</g>
			<g>
				<g>
					<path style="fill:#FFA8A7;" d="M411.939,244.793c1.349-6.378,3.418-12.202,4.417-17.784
						c2.456-13.722,2.299-14.805,1.111-20.587c-3.438-16.734-5.73-25.331-8.605-33.729c-3.896-11.378-5.18-11.567-17.173-14.757
						c-5.266,4.926-4.999,19.607-1.615,27.581c3.841,11.874,8.914,29.535,8.914,29.535c-0.212,2.767-0.335,20.518-2.236,28.507
						c-0.65,2.756-2.533,3.877-4.123,4.816c-2.961,1.749-4.217,5.899-6.42,8.191c-1.724,1.794-3.069,2.38-2.844,2.953
						c0.289,0.736,1.701,1.211,3.832,0.654c1.468-0.384,2.795-1.097,3.957-2.066c0.574-0.479,1.018-1.131,1.681-1.504
						c0.95-0.535,0.981,0.404,0.909,1.091c-0.129,1.227-0.646,2.322-1.087,3.472c-0.735,1.916-1.609,3.79-2.604,5.583
						c-0.919,1.655-1.915,2.417-3.514,4.422c-0.925,1.161-2.217,2.267-2.628,3.7c-0.281,0.982-0.334,2.571,0.861,2.968
						c0.545,0.182,1.272-0.481,1.716-0.762c0.583-0.369,1.219-1.051,1.919-1.179c0.617-0.113,1.337,0.189,1.942,0.279
						c0.978,0.146,2.079,0.066,3.005-0.293c0.473-0.184,0.835-0.411,1.206-0.748c0.125-0.114,0.335-0.396,0.494-0.462
						c0.626-0.26,1.598-0.033,2.275-0.217c1.608-0.437,2.488-1.974,3.976-2.615c0.846-0.365,1.641-0.814,2.344-1.427
						c0.92-0.802,2.067-2.093,2.591-3.191c2.155-4.512,4.412-10.404,4.797-15.392C411.202,249.659,411.536,247.231,411.939,244.793z
						"/>
				</g>
				<path style="fill:#455A64;" d="M391.064,157.432c7.27,1.911,11.139,2.277,14.258,6.262c3.119,3.985,7.028,19.032,8.799,25.61
					c1.771,6.579,4.131,17.895,4.5,19.971c0.369,2.077,0.279,4.563-0.811,11.141c-1.247,7.517-3.817,19.979-3.817,19.979
					s-1.842,0.579-8.003-0.675c-6.161-1.254-8.679-2.13-8.679-2.13l1.215-22.55l-10.339-31.882
					C388.189,183.159,382.952,164.417,391.064,157.432z"/>
				<path style="fill:#37474F;" d="M397.454,233.459l-0.321,6.107c0,0,2,2.583,8.057,3.725c5.302,0.999,8.515-1.18,8.515-1.18
					l1.222-5.97c0,0-3.602,1.7-9.058,0.812C399.648,235.941,397.454,233.459,397.454,233.459z"/>
			</g>
		</g>
	</g>
</g>
<g id="Speech_Bubble">
	<g id="Speech_Bubble_12_">
		<g id="Speech_Bubble_13_">
			<path style="fill:#BA68C8;" d="M276.164,189.015c-0.105-0.061-0.23-0.097-0.369-0.097h-0.826v13.855l8.161-8.761
				c0.322-0.371,0.186-0.904-0.188-1.119C282.837,192.832,276.537,189.231,276.164,189.015z"/>
			<path style="opacity:0.3;fill:#FFFFFF;" d="M276.164,189.015c-0.105-0.061-0.23-0.097-0.369-0.097h-0.826v13.855l8.161-8.761
				c0.322-0.371,0.186-0.904-0.188-1.119C282.837,192.832,276.537,189.231,276.164,189.015z"/>
			<path style="fill:#BA68C8;" d="M283.133,194.012l-8.16,8.76v-9.98h7.6C283.203,192.792,283.543,193.532,283.133,194.012z"/>
			<path id="XMLID_6822_" style="fill:#BA68C8;" d="M274.968,184.583c0-2.045-1.436-4.531-3.207-5.554l0.003,0.005
				c-1.771-1.023-4.642-1.023-6.413,0l-85.311,49.244c-1.771,1.023-3.207,3.509-3.207,5.554v27.473c0,2.045,1.436,4.532,3.207,5.554
				l-0.003-0.005c1.771,1.023,4.643,1.023,6.414,0l85.61-49.462c2.881-1.642,2.907-3.291,2.907-5.336L274.968,184.583z"/>
			<path id="XMLID_6821_" style="opacity:0.2;" d="M176.833,261.305c0,2.045,1.436,4.532,3.207,5.554l-0.003-0.005
				c1.601,0.924,4.092,1.015,5.865,0.269c-1.509,0.571-2.659-0.291-2.659-2.12l0-27.473c0-1.023,0.359-2.156,0.939-3.161
				l-6.411-3.698c-0.58,1.005-0.939,2.138-0.939,3.16V261.305z"/>
			<path id="XMLID_6820_" style="opacity:0.3;fill:#FFFFFF;" d="M274.863,183.671c-0.374-1.361-1.616-1.795-3.097-0.942
				l-85.318,49.249c-0.882,0.509-1.69,1.376-2.259,2.394l-6.407-3.694c0.583-1.017,1.376-1.885,2.259-2.394l85.303-49.249
				c1.78-1.017,4.652-1.017,6.418,0l0.004-0.002C273.278,179.901,274.549,181.846,274.863,183.671z"/>
		</g>
		<g>
			<g>
				<path style="fill:#FAFAFA;" d="M196.776,237.349c-0.346,0-0.682-0.179-0.867-0.5c-0.276-0.479-0.112-1.09,0.366-1.366
					l64.992-37.523c0.477-0.277,1.09-0.113,1.366,0.366c0.276,0.479,0.112,1.09-0.366,1.366l-64.992,37.523
					C197.118,237.306,196.946,237.349,196.776,237.349z"/>
			</g>
			<g>
				<path style="fill:#FAFAFA;" d="M196.776,244.679c-0.346,0-0.683-0.18-0.867-0.501c-0.276-0.479-0.111-1.09,0.367-1.365
					l64.993-37.451c0.48-0.276,1.09-0.111,1.365,0.367c0.276,0.479,0.111,1.09-0.367,1.365l-64.993,37.451
					C197.117,244.636,196.945,244.679,196.776,244.679z"/>
			</g>
			<g>
				<path style="fill:#FAFAFA;" d="M196.776,252.06c-0.346,0-0.683-0.18-0.867-0.501c-0.276-0.479-0.111-1.09,0.367-1.365
					l64.993-37.451c0.48-0.276,1.09-0.111,1.365,0.367c0.276,0.479,0.111,1.09-0.367,1.365l-64.993,37.451
					C197.117,252.017,196.945,252.06,196.776,252.06z"/>
			</g>
		</g>
	</g>
</g>
</svg>
